<?xml version="1.0" encoding="UTF-8" standalone="no"?>
<!-- Created with Inkscape (http://www.inkscape.org/) -->

<svg
   width="61.597363"
   height="23.565704"
   viewBox="0 0 61.597363 23.565704"
   version="1.1"
   id="svg1"
   xml:space="preserve"
   sodipodi:docname="drawing V2.svg"
   inkscape:version="1.4.2 (f4327f4, 2025-05-13)"
   inkscape:export-filename="v2\pcawb.png"
   inkscape:export-xdpi="864"
   inkscape:export-ydpi="864"
   xmlns:inkscape="http://www.inkscape.org/namespaces/inkscape"
   xmlns:sodipodi="http://sodipodi.sourceforge.net/DTD/sodipodi-0.dtd"
   xmlns:xlink="http://www.w3.org/1999/xlink"
   xmlns="http://www.w3.org/2000/svg"
   xmlns:svg="http://www.w3.org/2000/svg"><sodipodi:namedview
     id="namedview1"
     pagecolor="#1a2d4b"
     bordercolor="#999999"
     borderopacity="1"
     inkscape:showpageshadow="2"
     inkscape:pageopacity="0"
     inkscape:pagecheckerboard="0"
     inkscape:deskcolor="#d1d1d1"
     inkscape:document-units="px"
     inkscape:zoom="4"
     inkscape:cx="34.125"
     inkscape:cy="62.624999"
     inkscape:window-width="1920"
     inkscape:window-height="991"
     inkscape:window-x="-9"
     inkscape:window-y="-9"
     inkscape:window-maximized="1"
     inkscape:current-layer="layer1"
     inkscape:export-bgcolor="#ffffff00"><inkscape:page
       x="0"
       y="0"
       width="61.597363"
       height="23.565704"
       id="page2"
       margin="0"
       bleed="0" /></sodipodi:namedview><defs
     id="defs1"><linearGradient
       id="linearGradient12"
       inkscape:collect="always"><stop
         style="stop-color:#2c67f2;stop-opacity:1;"
         offset="0"
         id="stop11" /><stop
         style="stop-color:#62cff4;stop-opacity:1;"
         offset="1"
         id="stop12" /></linearGradient><linearGradient
       id="linearGradient14"
       inkscape:collect="always"><stop
         style="stop-color:#2c67f2;stop-opacity:1;"
         offset="0"
         id="stop14" /><stop
         style="stop-color:#62cff4;stop-opacity:1;"
         offset="1"
         id="stop15" /></linearGradient><linearGradient
       id="linearGradient49"
       inkscape:collect="always"><stop
         style="stop-color:#1a2d4b;stop-opacity:0;"
         offset="0"
         id="stop46" /><stop
         style="stop-color:#054da5;stop-opacity:0;"
         offset="0.56860709"
         id="stop47" /><stop
         style="stop-color:#1a2d4b;stop-opacity:1;"
         offset="0.62889814"
         id="stop48" /><stop
         style="stop-color:#1a2d4b;stop-opacity:1;"
         offset="1"
         id="stop49" /></linearGradient><linearGradient
       id="linearGradient58"
       inkscape:collect="always"><stop
         style="stop-color:#ff8531;stop-opacity:1;"
         offset="0"
         id="stop57" /><stop
         style="stop-color:#ffd380;stop-opacity:1;"
         offset="1"
         id="stop58" /></linearGradient><linearGradient
       id="linearGradient53"
       inkscape:collect="always"><stop
         style="stop-color:#ff8531;stop-opacity:1;"
         offset="0"
         id="stop53" /><stop
         style="stop-color:#ffffff;stop-opacity:1;"
         offset="1"
         id="stop51" /></linearGradient><linearGradient
       inkscape:collect="always"
       xlink:href="#linearGradient53"
       id="linearGradient31"
       x1="60"
       y1="35.602631"
       x2="60"
       y2="74.464325"
       gradientUnits="userSpaceOnUse" /><linearGradient
       inkscape:collect="always"
       xlink:href="#linearGradient49"
       id="linearGradient73-8"
       x1="60.001091"
       y1="7.6898232"
       x2="60.001091"
       y2="63.814671"
       gradientUnits="userSpaceOnUse"
       gradientTransform="matrix(0.9999785,0,0,0.9999785,2.0320783e-4,5.1698672e-4)" /><linearGradient
       inkscape:collect="always"
       xlink:href="#linearGradient14"
       id="linearGradient15"
       x1="60"
       y1="72.228951"
       x2="60"
       y2="29.896797"
       gradientUnits="userSpaceOnUse" /><linearGradient
       inkscape:collect="always"
       xlink:href="#linearGradient58"
       id="linearGradient19"
       x1="54.204292"
       y1="54.991409"
       x2="65.795746"
       y2="54.991409"
       gradientUnits="userSpaceOnUse" /><linearGradient
       inkscape:collect="always"
       xlink:href="#linearGradient58"
       id="linearGradient23"
       x1="54.204292"
       y1="54.991409"
       x2="65.795746"
       y2="54.991409"
       gradientUnits="userSpaceOnUse" /><linearGradient
       inkscape:collect="always"
       xlink:href="#linearGradient58"
       id="linearGradient131"
       gradientUnits="userSpaceOnUse"
       gradientTransform="matrix(0.81159213,0,0,0.81159213,14.474806,9.9302919)"
       x1="62.365433"
       y1="125.71156"
       x2="62.365433"
       y2="117.56247" /><linearGradient
       inkscape:collect="always"
       xlink:href="#linearGradient58"
       id="linearGradient132"
       gradientUnits="userSpaceOnUse"
       gradientTransform="matrix(0.81159213,0,0,0.81159213,14.474806,9.9302919)"
       x1="62.365433"
       y1="125.71156"
       x2="62.365433"
       y2="117.56247" /><linearGradient
       inkscape:collect="always"
       xlink:href="#linearGradient14"
       id="linearGradient141"
       gradientUnits="userSpaceOnUse"
       x1="45.405018"
       y1="97.845543"
       x2="45.405018"
       y2="89.128059"
       gradientTransform="matrix(0.78885319,0,0,0.78885319,21.589328,34.903656)" /><linearGradient
       inkscape:collect="always"
       xlink:href="#linearGradient14"
       id="linearGradient142"
       gradientUnits="userSpaceOnUse"
       x1="45.405018"
       y1="97.845543"
       x2="45.405018"
       y2="89.128059"
       gradientTransform="matrix(0.78885319,0,0,0.78885319,21.589328,34.903656)" /><linearGradient
       inkscape:collect="always"
       xlink:href="#linearGradient58"
       id="linearGradient162"
       gradientUnits="userSpaceOnUse"
       gradientTransform="matrix(0.75593125,0,0,0.75593125,45.039734,38.237092)"
       x1="7.3904819"
       y1="96.871666"
       x2="7.3904819"
       y2="89.426186" /><linearGradient
       inkscape:collect="always"
       xlink:href="#linearGradient58"
       id="linearGradient163"
       gradientUnits="userSpaceOnUse"
       gradientTransform="matrix(0.75593125,0,0,0.75593125,45.041546,24.813112)"
       x1="7.3887262"
       y1="114.62864"
       x2="7.3887262"
       y2="107.1849" /><linearGradient
       inkscape:collect="always"
       xlink:href="#linearGradient14"
       id="linearGradient183"
       gradientUnits="userSpaceOnUse"
       x1="60"
       y1="72.228951"
       x2="60"
       y2="29.896797" /><linearGradient
       inkscape:collect="always"
       xlink:href="#linearGradient49"
       id="linearGradient184"
       gradientUnits="userSpaceOnUse"
       gradientTransform="matrix(0.9999785,0,0,0.9999785,2.0320783e-4,5.1698672e-4)"
       x1="60.001091"
       y1="7.6898232"
       x2="60.001091"
       y2="63.814671" /><linearGradient
       inkscape:collect="always"
       xlink:href="#linearGradient58"
       id="linearGradient185"
       gradientUnits="userSpaceOnUse"
       x1="54.204292"
       y1="54.991409"
       x2="65.795746"
       y2="54.991409" /><linearGradient
       inkscape:collect="always"
       xlink:href="#linearGradient58"
       id="linearGradient186"
       gradientUnits="userSpaceOnUse"
       x1="54.204292"
       y1="54.991409"
       x2="65.795746"
       y2="54.991409" /><linearGradient
       inkscape:collect="always"
       xlink:href="#linearGradient53"
       id="linearGradient187"
       gradientUnits="userSpaceOnUse"
       x1="60"
       y1="35.602631"
       x2="60"
       y2="74.464325" /><linearGradient
       inkscape:collect="always"
       xlink:href="#linearGradient58"
       id="linearGradient68"
       gradientUnits="userSpaceOnUse"
       gradientTransform="matrix(0.75596747,0,0,0.75596747,3.4764395,33.97267)"
       x1="81.6922"
       y1="103.27318"
       x2="81.6922"
       y2="94.294281" /><linearGradient
       inkscape:collect="always"
       xlink:href="#linearGradient58"
       id="linearGradient70"
       gradientUnits="userSpaceOnUse"
       gradientTransform="matrix(0.75596747,0,0,0.75596747,3.4764395,33.97267)"
       x1="81.6922"
       y1="103.27318"
       x2="81.6922"
       y2="94.294281" /><linearGradient
       inkscape:collect="always"
       xlink:href="#linearGradient12"
       id="linearGradient9"
       x1="79.52565"
       y1="55.398846"
       x2="66.224197"
       y2="55.398846"
       gradientUnits="userSpaceOnUse" /><linearGradient
       inkscape:collect="always"
       xlink:href="#linearGradient14"
       id="linearGradient11"
       x1="40.474342"
       y1="55.398846"
       x2="53.775787"
       y2="55.398846"
       gradientUnits="userSpaceOnUse" /><linearGradient
       inkscape:collect="always"
       xlink:href="#linearGradient14"
       id="linearGradient17"
       x1="79.52565"
       y1="55.398846"
       x2="66.224197"
       y2="55.398846"
       gradientUnits="userSpaceOnUse" /><linearGradient
       inkscape:collect="always"
       xlink:href="#linearGradient14"
       id="linearGradient25"
       x1="40.474342"
       y1="55.398846"
       x2="53.775787"
       y2="55.398846"
       gradientUnits="userSpaceOnUse" /><linearGradient
       inkscape:collect="always"
       xlink:href="#linearGradient53"
       id="linearGradient35"
       gradientUnits="userSpaceOnUse"
       x1="60"
       y1="35.602631"
       x2="60"
       y2="74.464325" /><linearGradient
       inkscape:collect="always"
       xlink:href="#linearGradient14"
       id="linearGradient52"
       x1="79.52565"
       y1="55.398846"
       x2="66.224197"
       y2="55.398846"
       gradientUnits="userSpaceOnUse" /><linearGradient
       inkscape:collect="always"
       xlink:href="#linearGradient14"
       id="linearGradient55"
       x1="79.52565"
       y1="55.398846"
       x2="66.224197"
       y2="55.398846"
       gradientUnits="userSpaceOnUse" /><linearGradient
       inkscape:collect="always"
       xlink:href="#linearGradient14"
       id="linearGradient59"
       x1="40.474342"
       y1="55.398846"
       x2="53.775787"
       y2="55.398846"
       gradientUnits="userSpaceOnUse" /><linearGradient
       inkscape:collect="always"
       xlink:href="#linearGradient14"
       id="linearGradient61"
       x1="40.474342"
       y1="55.398846"
       x2="53.775787"
       y2="55.398846"
       gradientUnits="userSpaceOnUse" /><linearGradient
       inkscape:collect="always"
       xlink:href="#linearGradient58"
       id="linearGradient71"
       gradientUnits="userSpaceOnUse"
       gradientTransform="matrix(0.81159213,0,0,0.81159213,14.474806,9.9302919)"
       x1="62.365433"
       y1="125.71156"
       x2="62.365433"
       y2="117.56247" /><linearGradient
       inkscape:collect="always"
       xlink:href="#linearGradient58"
       id="linearGradient72"
       gradientUnits="userSpaceOnUse"
       gradientTransform="matrix(0.81159213,0,0,0.81159213,14.474806,9.9302919)"
       x1="62.365433"
       y1="125.71156"
       x2="62.365433"
       y2="117.56247" /><linearGradient
       inkscape:collect="always"
       xlink:href="#linearGradient14"
       id="linearGradient73"
       gradientUnits="userSpaceOnUse"
       gradientTransform="matrix(0.78885319,0,0,0.78885319,21.589328,34.903656)"
       x1="45.405018"
       y1="97.845543"
       x2="45.405018"
       y2="89.128059" /><linearGradient
       inkscape:collect="always"
       xlink:href="#linearGradient14"
       id="linearGradient74"
       gradientUnits="userSpaceOnUse"
       gradientTransform="matrix(0.78885319,0,0,0.78885319,21.589328,34.903656)"
       x1="45.405018"
       y1="97.845543"
       x2="45.405018"
       y2="89.128059" /><linearGradient
       inkscape:collect="always"
       xlink:href="#linearGradient58"
       id="linearGradient75"
       gradientUnits="userSpaceOnUse"
       gradientTransform="matrix(0.75593125,0,0,0.75593125,45.039734,38.237092)"
       x1="7.3904819"
       y1="96.871666"
       x2="7.3904819"
       y2="89.426186" /><linearGradient
       inkscape:collect="always"
       xlink:href="#linearGradient58"
       id="linearGradient76"
       gradientUnits="userSpaceOnUse"
       gradientTransform="matrix(0.75593125,0,0,0.75593125,45.041546,24.813112)"
       x1="7.3887262"
       y1="114.62864"
       x2="7.3887262"
       y2="107.1849" /><linearGradient
       inkscape:collect="always"
       xlink:href="#linearGradient58"
       id="linearGradient77"
       gradientUnits="userSpaceOnUse"
       gradientTransform="matrix(0.75596747,0,0,0.75596747,3.4764395,33.97267)"
       x1="81.6922"
       y1="103.27318"
       x2="81.6922"
       y2="94.294281" /><linearGradient
       inkscape:collect="always"
       xlink:href="#linearGradient58"
       id="linearGradient78"
       gradientUnits="userSpaceOnUse"
       gradientTransform="matrix(0.75596747,0,0,0.75596747,3.4764395,33.97267)"
       x1="81.6922"
       y1="103.27318"
       x2="81.6922"
       y2="94.294281" /><linearGradient
       inkscape:collect="always"
       xlink:href="#linearGradient49"
       id="linearGradient3"
       gradientUnits="userSpaceOnUse"
       gradientTransform="matrix(0.9999785,0,0,0.9999785,2.0320783e-4,5.1698672e-4)"
       x1="60.001091"
       y1="7.6898232"
       x2="60.001091"
       y2="63.814671" /><linearGradient
       inkscape:collect="always"
       xlink:href="#linearGradient58"
       id="linearGradient4"
       gradientUnits="userSpaceOnUse"
       x1="54.204292"
       y1="54.991409"
       x2="65.795746"
       y2="54.991409" /><linearGradient
       inkscape:collect="always"
       xlink:href="#linearGradient58"
       id="linearGradient5"
       gradientUnits="userSpaceOnUse"
       x1="54.204292"
       y1="54.991409"
       x2="65.795746"
       y2="54.991409" /><linearGradient
       inkscape:collect="always"
       xlink:href="#linearGradient53"
       id="linearGradient6"
       gradientUnits="userSpaceOnUse"
       x1="60"
       y1="35.602631"
       x2="60"
       y2="74.464325" /><linearGradient
       inkscape:collect="always"
       xlink:href="#linearGradient53"
       id="linearGradient7"
       gradientUnits="userSpaceOnUse"
       x1="60"
       y1="35.602631"
       x2="60"
       y2="74.464325" /><linearGradient
       inkscape:collect="always"
       xlink:href="#linearGradient49"
       id="linearGradient8"
       gradientUnits="userSpaceOnUse"
       gradientTransform="matrix(0.9999785,0,0,0.9999785,2.0320783e-4,5.1698672e-4)"
       x1="60.001091"
       y1="7.6898232"
       x2="60.001091"
       y2="63.814671" /><linearGradient
       inkscape:collect="always"
       xlink:href="#linearGradient58"
       id="linearGradient10"
       gradientUnits="userSpaceOnUse"
       x1="54.204292"
       y1="54.991409"
       x2="65.795746"
       y2="54.991409" /><linearGradient
       inkscape:collect="always"
       xlink:href="#linearGradient58"
       id="linearGradient13"
       gradientUnits="userSpaceOnUse"
       x1="54.204292"
       y1="54.991409"
       x2="65.795746"
       y2="54.991409" /><linearGradient
       inkscape:collect="always"
       xlink:href="#linearGradient53"
       id="linearGradient16"
       gradientUnits="userSpaceOnUse"
       x1="60"
       y1="35.602631"
       x2="60"
       y2="74.464325" /></defs><g
     inkscape:groupmode="layer"
     id="layer3"
     inkscape:label="Layer 3"
     style="display:none"
     transform="translate(-29.201305,-48.217149)"><g
       id="text2"
       style="font-weight:500;font-size:24.4106px;line-height:10.6796px;font-family:Fredoka;-inkscape-font-specification:'Fredoka Medium';display:inline;fill:url(#linearGradient31);stroke:#000000;stroke-width:0;stroke-linecap:round;stroke-linejoin:round;paint-order:stroke fill markers"
       aria-label="&lt;/&gt;"
       transform="matrix(0.75593125,0,0,0.75593125,14.644123,9.493157)"><g
         id="g172"
         style="display:inline;fill:url(#linearGradient6)"><path
           d="M 77.348623,32.164594 H 42.67028 c -2.088261,0 -3.836351,1.748089 -3.836351,3.836351 v 12.775239 c 0,11.783079 9.420792,21.184972 21.184971,21.184972 11.716937,0 21.147176,-9.401893 21.147176,-21.184972 V 36.000945 c 0,-2.116607 -1.672501,-3.836351 -3.817453,-3.836351 z"
           id="path1-2"
           style="font-weight:500;font-size:24.4106px;line-height:10.6796px;font-family:Fredoka;-inkscape-font-specification:'Fredoka Medium';fill:url(#linearGradient15);fill-opacity:1;stroke:none;stroke-width:0.0944914;stroke-linecap:round;stroke-linejoin:round;paint-order:stroke fill markers"
           sodipodi:nodetypes="ssssssss"
           transform="matrix(1.3228716,0,0,1.3228716,-19.372295,-12.558228)" /><rect
           style="fill:#1a2d4b;fill-opacity:1;stroke:#000000;stroke-width:0;stroke-linecap:round;stroke-linejoin:round;paint-order:stroke fill markers"
           id="rect4"
           width="35.986015"
           height="4.6713977"
           x="42.006992"
           y="34.183697"
           ry="2.3356988"
           transform="matrix(1.3228716,0,0,1.3228716,-19.372295,-12.558228)" /><path
           id="path57-1"
           style="font-weight:500;font-size:24.4106px;line-height:10.6796px;font-family:Fredoka;-inkscape-font-specification:'Fredoka Medium';display:inline;fill:none;fill-opacity:0;stroke:url(#linearGradient3);stroke-width:0.661421;stroke-linecap:round;stroke-linejoin:round;stroke-dasharray:none;stroke-opacity:1;paint-order:stroke fill markers"
           d="m 37.07503,29.990388 c -2.762444,0 -5.074345,2.311906 -5.074345,5.074347 v 1.374513 0.0026 c 0.002,2.760839 2.313109,5.071753 5.074345,5.071753 h 45.873203 c 2.837435,0 5.05109,-2.274404 5.05109,-5.074346 v -1.374514 c 0,-2.799942 -2.213655,-5.074348 -5.05109,-5.074348 z m 2.211626,2.671522 h 41.426695 c 1.71173,1.3e-5 3.087495,1.378349 3.087495,3.090082 0,1.711733 -1.375765,3.090082 -3.087495,3.090082 H 39.286656 c -0.106981,0 -0.213686,-0.005 -0.317791,-0.0155 -1.561568,-0.157696 -2.769703,-1.469825 -2.769703,-3.074578 0,-1.711733 1.375767,-3.090082 3.087494,-3.090082 z" /><g
           id="text14"
           style="font-weight:bold;font-size:27.1623px;line-height:11.8834px;font-family:Quicksand;-inkscape-font-specification:'Quicksand Bold';display:inline;fill:#ffffff;stroke:#ffffff;stroke-width:1.32287;stroke-linecap:round;stroke-linejoin:round;stroke-dasharray:none;paint-order:stroke fill markers"
           aria-label="&lt;/&gt;"
           transform="translate(1.0807179e-5,2.6457432)"><path
             style="font-weight:500;font-family:Outfit;-inkscape-font-specification:'Outfit Medium';stroke-width:1.32287;stroke-dasharray:none"
             d="M 53.114351,61.781985 41.135777,56.485336 v -2.172984 l 11.978574,-5.296648 v 3.015015 l -9.479643,3.911371 v -1.086492 l 9.479643,3.911371 z"
             id="path15" /><path
             style="font-weight:500;font-family:Outfit;-inkscape-font-specification:'Outfit Medium';fill:url(#linearGradient4);stroke:url(#linearGradient5);stroke-width:1.32287;stroke-dasharray:none"
             d="m 54.798438,65.584707 7.605444,-21.186594 h 2.797717 l -7.605444,21.186594 z"
             id="path16" /><path
             style="font-weight:500;font-family:Outfit;-inkscape-font-specification:'Outfit Medium';stroke-width:1.32287;stroke-dasharray:none"
             d="m 66.885635,52.030719 v -3.015015 l 11.978575,5.296648 v 2.172984 l -11.978575,5.296649 v -3.015016 l 9.479643,-3.911371 v 1.086492 z"
             id="path17" /></g></g><image
         width="158.7446"
         height="158.7446"
         preserveAspectRatio="none"
         style="fill:url(#linearGradient35);image-rendering:optimizeQuality"
         xlink:href="../../to%20use%20v1/pctlogodb.png"
         id="image1"
         x="-250.87483"
         y="-40.530228" /><g
         id="g6"
         style="display:inline;fill:url(#linearGradient7)"><path
           id="path1"
           style="font-weight:500;font-size:24.4106px;line-height:10.6796px;font-family:Fredoka;-inkscape-font-specification:'Fredoka Medium';display:inline;fill:#ffffff;fill-opacity:1;stroke:none;stroke-width:0.0944914;stroke-linecap:round;stroke-linejoin:round;paint-order:stroke fill markers"
           d="m 42.669923,32.164063 c -2.088261,0 -3.835938,1.747676 -3.835938,3.835938 v 12.77539 c 0,11.783079 9.421368,21.185548 21.185547,21.185548 11.716937,0 21.146485,-9.402469 21.146485,-21.185548 v -12.77539 c 0,-2.116607 -1.673407,-3.835938 -3.818359,-3.835938 z m 1.671875,2.019531 h 31.316407 c 1.293977,0 2.333984,1.041961 2.333984,2.335938 0,1.293977 -1.040007,2.335937 -2.333984,2.335937 H 44.341798 c -1.293977,0 -2.333985,-1.04196 -2.333985,-2.335937 0,-1.293977 1.040008,-2.335938 2.333985,-2.335938 z"
           transform="matrix(1.3228716,0,0,1.3228716,-19.372295,-12.558228)" /><path
           id="path2"
           style="font-weight:500;font-size:24.4106px;line-height:10.6796px;font-family:Fredoka;-inkscape-font-specification:'Fredoka Medium';display:inline;fill:none;fill-opacity:0;stroke:url(#linearGradient73-8);stroke-width:0.661421;stroke-linecap:round;stroke-linejoin:round;stroke-dasharray:none;stroke-opacity:1;paint-order:stroke fill markers"
           d="m 37.07503,29.990388 c -2.762444,0 -5.074345,2.311906 -5.074345,5.074347 v 1.374513 0.0026 c 0.002,2.760839 2.313109,5.071753 5.074345,5.071753 h 45.873203 c 2.837435,0 5.05109,-2.274404 5.05109,-5.074346 v -1.374514 c 0,-2.799942 -2.213655,-5.074348 -5.05109,-5.074348 z m 2.211626,2.671522 h 41.426695 c 1.71173,1.3e-5 3.087495,1.378349 3.087495,3.090082 0,1.711733 -1.375765,3.090082 -3.087495,3.090082 H 39.286656 c -0.106981,0 -0.213686,-0.005 -0.317791,-0.0155 -1.561568,-0.157696 -2.769703,-1.469825 -2.769703,-3.074578 0,-1.711733 1.375767,-3.090082 3.087494,-3.090082 z" /><g
           id="g5"
           style="font-weight:bold;font-size:27.1623px;line-height:11.8834px;font-family:Quicksand;-inkscape-font-specification:'Quicksand Bold';display:inline;fill:#ffffff;stroke:#ffffff;stroke-width:1.32287;stroke-linecap:round;stroke-linejoin:round;stroke-dasharray:none;paint-order:stroke fill markers"
           aria-label="&lt;/&gt;"
           transform="translate(1.0807179e-5,2.6457432)"><path
             style="font-weight:500;font-family:Outfit;-inkscape-font-specification:'Outfit Medium';fill:url(#linearGradient11);stroke:url(#linearGradient25);stroke-width:1.32287;stroke-dasharray:none"
             d="M 53.114351,61.781985 41.135777,56.485336 v -2.172984 l 11.978574,-5.296648 v 3.015015 l -9.479643,3.911371 v -1.086492 l 9.479643,3.911371 z"
             id="path3" /><path
             style="font-weight:500;font-family:Outfit;-inkscape-font-specification:'Outfit Medium';fill:url(#linearGradient19);stroke:url(#linearGradient23);stroke-width:1.32287;stroke-dasharray:none"
             d="m 54.798438,65.584707 7.605444,-21.186594 h 2.797717 l -7.605444,21.186594 z"
             id="path4" /><path
             style="font-weight:500;font-family:Outfit;-inkscape-font-specification:'Outfit Medium';fill:url(#linearGradient9);stroke:url(#linearGradient17);stroke-width:1.32287;stroke-dasharray:none"
             d="m 66.885635,52.030719 v -3.015015 l 11.978575,5.296648 v 2.172984 l -11.978575,5.296649 v -3.015016 l 9.479643,-3.911371 v 1.086492 z"
             id="path5" /></g></g></g></g><g
     inkscape:groupmode="layer"
     id="layer1"
     inkscape:label="Layer 4"
     style="display:inline"
     transform="matrix(2.2456164,0,0,2.2456164,-83.818721,-238.07708)"><g
       id="g183"
       style="font-weight:500;font-size:24.4106px;line-height:10.6796px;font-family:Fredoka;-inkscape-font-specification:'Fredoka Medium';display:none;fill:url(#linearGradient16);stroke:#000000;stroke-width:0;stroke-linecap:round;stroke-linejoin:round;paint-order:stroke fill markers"
       transform="matrix(0,0.31773684,-0.31546331,0,59.263289,92.201419)"><path
         d="M 77.348623,32.164594 H 42.67028 c -2.088261,0 -3.836351,1.748089 -3.836351,3.836351 v 12.775239 c 0,11.783079 9.420792,21.184972 21.184971,21.184972 11.716937,0 21.147176,-9.401893 21.147176,-21.184972 V 36.000945 c 0,-2.116607 -1.672501,-3.836351 -3.817453,-3.836351 z"
         id="path178"
         style="font-weight:500;font-size:24.4106px;line-height:10.6796px;font-family:Fredoka;-inkscape-font-specification:'Fredoka Medium';fill:url(#linearGradient183);fill-opacity:1;stroke:none;stroke-width:0.0944914;stroke-linecap:round;stroke-linejoin:round;paint-order:stroke fill markers"
         sodipodi:nodetypes="ssssssss"
         transform="matrix(1.3228716,0,0,1.3228716,-19.372295,-12.558228)" /><rect
         style="fill:#1a2d4b;fill-opacity:1;stroke:none;stroke-width:0;stroke-linecap:round;stroke-linejoin:round;stroke-opacity:1;paint-order:stroke fill markers"
         id="rect178"
         width="35.986015"
         height="4.6713977"
         x="42.006992"
         y="34.183697"
         ry="2.3356988"
         transform="matrix(1.3228716,0,0,1.3228716,-19.372295,-12.558228)" /><path
         id="path179"
         style="font-weight:500;font-size:24.4106px;line-height:10.6796px;font-family:Fredoka;-inkscape-font-specification:'Fredoka Medium';display:inline;fill:none;fill-opacity:0;stroke:url(#linearGradient8);stroke-width:0.661421;stroke-linecap:round;stroke-linejoin:round;stroke-dasharray:none;stroke-opacity:1;paint-order:stroke fill markers"
         d="m 37.07503,29.990388 c -2.762444,0 -5.074345,2.311906 -5.074345,5.074347 v 1.374513 0.0026 c 0.002,2.760839 2.313109,5.071753 5.074345,5.071753 h 45.873203 c 2.837435,0 5.05109,-2.274404 5.05109,-5.074346 v -1.374514 c 0,-2.799942 -2.213655,-5.074348 -5.05109,-5.074348 z m 2.211626,2.671522 h 41.426695 c 1.71173,1.3e-5 3.087495,1.378349 3.087495,3.090082 0,1.711733 -1.375765,3.090082 -3.087495,3.090082 H 39.286656 c -0.106981,0 -0.213686,-0.005 -0.317791,-0.0155 -1.561568,-0.157696 -2.769703,-1.469825 -2.769703,-3.074578 0,-1.711733 1.375767,-3.090082 3.087494,-3.090082 z" /><g
         id="g182"
         style="font-weight:bold;font-size:27.1623px;line-height:11.8834px;font-family:Quicksand;-inkscape-font-specification:'Quicksand Bold';display:inline;fill:#ffffff;stroke:#ffffff;stroke-width:1.32287;stroke-linecap:round;stroke-linejoin:round;stroke-dasharray:none;paint-order:stroke fill markers"
         aria-label="&lt;/&gt;"
         transform="translate(1.0807179e-5,1.7467816)"><path
           style="font-weight:500;font-family:Outfit;-inkscape-font-specification:'Outfit Medium';stroke-width:1.32287;stroke-dasharray:none"
           d="M 53.114351,61.781985 41.135777,56.485336 v -2.172984 l 11.978574,-5.296648 v 3.015015 l -9.479643,3.911371 v -1.086492 l 9.479643,3.911371 z"
           id="path180" /><path
           style="font-weight:500;font-family:Outfit;-inkscape-font-specification:'Outfit Medium';fill:url(#linearGradient10);stroke:url(#linearGradient13);stroke-width:1.32287;stroke-dasharray:none"
           d="m 54.798438,65.584707 7.605444,-21.186594 h 2.797717 l -7.605444,21.186594 z"
           id="path181" /><path
           style="font-weight:500;font-family:Outfit;-inkscape-font-specification:'Outfit Medium';stroke-width:1.32287;stroke-dasharray:none"
           d="m 66.885635,52.030719 v -3.015015 l 11.978575,5.296648 v 2.172984 l -11.978575,5.296649 v -3.015016 l 9.479643,-3.911371 v 1.086492 z"
           id="path182" /></g></g><g
       id="g49"
       style="font-weight:500;font-size:24.4106px;line-height:10.6796px;font-family:Fredoka;-inkscape-font-specification:'Fredoka Medium';display:none;fill:url(#linearGradient187);stroke:#000000;stroke-width:0;stroke-linecap:round;stroke-linejoin:round;paint-order:stroke fill markers"
       transform="matrix(0,0.31773684,-0.31546331,0,59.263289,92.201419)"><path
         id="path44"
         style="font-weight:500;font-size:24.4106px;line-height:10.6796px;font-family:Fredoka;-inkscape-font-specification:'Fredoka Medium';fill:#ffffff;fill-opacity:1;stroke:none;stroke-width:0.0944914;stroke-linecap:round;stroke-linejoin:round;paint-order:stroke fill markers"
         d="m 38.833833,48.775499 c 0,11.783079 9.420619,21.185333 21.184798,21.185333 11.716937,0 21.147552,-9.402254 21.147552,-21.185333 V 36.001774 c 0,-2.116607 -1.672782,-3.83691 -3.817734,-3.83691 h -34.67826 c -2.088261,0 -3.836356,1.748648 -3.836356,3.83691 z m 3.172132,-12.256857 c 0,-1.293977 1.042186,-2.334242 2.336163,-2.334242 h 31.315759 c 1.293977,0 2.334094,1.040265 2.334094,2.334242 0,1.293977 -1.040117,2.336327 -2.334094,2.336327 H 44.342128 c -1.293977,0 -2.336163,-1.04235 -2.336163,-2.336327 z"
         transform="matrix(1.3228716,0,0,1.3228716,-19.372295,-12.558228)" /><path
         id="path45"
         style="font-weight:500;font-size:24.4106px;line-height:10.6796px;font-family:Fredoka;-inkscape-font-specification:'Fredoka Medium';display:inline;fill:none;fill-opacity:0;stroke:url(#linearGradient184);stroke-width:0.661421;stroke-linecap:round;stroke-linejoin:round;stroke-dasharray:none;stroke-opacity:1;paint-order:stroke fill markers"
         d="m 37.07503,29.990388 c -2.762444,0 -5.074345,2.311906 -5.074345,5.074347 v 1.374513 0.0026 c 0.002,2.760839 2.313109,5.071753 5.074345,5.071753 h 45.873203 c 2.837435,0 5.05109,-2.274404 5.05109,-5.074346 v -1.374514 c 0,-2.799942 -2.213655,-5.074348 -5.05109,-5.074348 z m 2.211626,2.671522 h 41.426695 c 1.71173,1.3e-5 3.087495,1.378349 3.087495,3.090082 0,1.711733 -1.375765,3.090082 -3.087495,3.090082 H 39.286656 c -0.106981,0 -0.213686,-0.005 -0.317791,-0.0155 -1.561568,-0.157696 -2.769703,-1.469825 -2.769703,-3.074578 0,-1.711733 1.375767,-3.090082 3.087494,-3.090082 z" /><g
         id="g48"
         style="font-weight:bold;font-size:27.1623px;line-height:11.8834px;font-family:Quicksand;-inkscape-font-specification:'Quicksand Bold';display:inline;fill:#ffffff;stroke:#ffffff;stroke-width:1.32287;stroke-linecap:round;stroke-linejoin:round;stroke-dasharray:none;paint-order:stroke fill markers"
         aria-label="&lt;/&gt;"
         transform="translate(1.0807179e-5,1.7467816)"><path
           style="font-weight:500;font-family:Outfit;-inkscape-font-specification:'Outfit Medium';fill:url(#linearGradient61);stroke:url(#linearGradient59);stroke-width:1.32287;stroke-dasharray:none"
           d="M 53.114351,61.781985 41.135777,56.485336 v -2.172984 l 11.978574,-5.296648 v 3.015015 l -9.479643,3.911371 v -1.086492 l 9.479643,3.911371 z"
           id="path46" /><path
           style="font-weight:500;font-family:Outfit;-inkscape-font-specification:'Outfit Medium';fill:url(#linearGradient185);stroke:url(#linearGradient186);stroke-width:1.32287;stroke-dasharray:none"
           d="m 54.798438,65.584707 7.605444,-21.186594 h 2.797717 l -7.605444,21.186594 z"
           id="path47" /><path
           style="font-weight:500;font-family:Outfit;-inkscape-font-specification:'Outfit Medium';fill:url(#linearGradient52);stroke:url(#linearGradient55);stroke-width:1.32287;stroke-dasharray:none"
           d="m 66.885635,52.030719 v -3.015015 l 11.978575,5.296648 v 2.172984 l -11.978575,5.296649 v -3.015016 l 9.479643,-3.911371 v 1.086492 z"
           id="path48" /></g></g><g
       id="g187"
       style="display:none"
       transform="translate(-0.3254705,3.31789)"><path
         id="path131"
         style="font-weight:normal;font-size:13.2501px;line-height:5.79696px;font-family:Outfit;-inkscape-font-specification:Outfit;display:none;fill:url(#linearGradient131);stroke:url(#linearGradient132);stroke-width:0.5;stroke-linecap:round;stroke-linejoin:round;stroke-dasharray:none;stroke-opacity:1;paint-order:stroke fill markers"
         d="m 62.052958,104.91946 v 0.92475 h 2.512132 0.02515 0.167755 l -2.350667,6.53825 h 0.819902 l 2.344378,-6.53825 h 0.02935 0.01678 2.51213 v -0.92475 h -2.226947 -0.811513 z m 2.537295,6.41244 v 1.05056 h 1.010724 v -1.05056 z" /><path
         style="font-weight:normal;font-size:13.2501px;line-height:5.79696px;font-family:Outfit;-inkscape-font-specification:Outfit;display:inline;fill:url(#linearGradient141);stroke:url(#linearGradient142);stroke-width:0.5;stroke-linecap:round;stroke-linejoin:round;stroke-dasharray:none;paint-order:normal"
         d="m 57.888034,112.38251 q -0.783929,0 -1.452882,-0.28221 -0.668953,-0.29267 -1.170667,-0.80484 -0.491263,-0.51215 -0.763024,-1.19157 -0.271762,-0.6794 -0.271762,-1.45287 0,-0.78393 0.271762,-1.46333 0.271761,-0.6794 0.763024,-1.18112 0.501714,-0.51217 1.160214,-0.79439 0.668953,-0.29266 1.452881,-0.29266 0.857096,0 1.505145,0.29266 0.648047,0.29268 1.149762,0.79439 l -0.679405,0.6794 q -0.34493,-0.38673 -0.846644,-0.60623 -0.491262,-0.2195 -1.128858,-0.2195 -0.57488,0 -1.05569,0.20904 -0.48081,0.1986 -0.83619,0.57489 -0.355382,0.37628 -0.553977,0.88844 -0.188143,0.51218 -0.188143,1.11841 0,0.60624 0.188143,1.11841 0.198595,0.51216 0.553977,0.88845 0.35538,0.37629 0.83619,0.58533 0.48081,0.1986 1.05569,0.1986 0.679407,0 1.181121,-0.2195 0.501713,-0.22996 0.846643,-0.61669 l 0.679404,0.66895 q -0.501715,0.52262 -1.181119,0.81529 -0.668953,0.29266 -1.515595,0.29265 z"
         id="path130" /><path
         id="path162"
         style="font-weight:500;font-size:13.2501px;line-height:5.79696px;font-family:'Plus Jakarta Sans';-inkscape-font-specification:'Plus Jakarta Sans Medium';display:inline;fill:url(#linearGradient162);stroke:url(#linearGradient163);stroke-width:0.5;stroke-linecap:round;stroke-linejoin:round;stroke-opacity:1;paint-order:stroke fill markers"
         d="m 48.063439,104.91957 v 4.60547 h 2.195312 c 0.0071,0 0.01474,7.5e-4 0.02148,0.002 h 0.416015 c 0.500808,0 0.935475,-0.0923 1.302735,-0.27929 0.373937,-0.19365 0.664093,-0.46219 0.871093,-0.80274 0.213678,-0.34723 0.320313,-0.75328 0.320313,-1.2207 0,-0.46742 -0.106635,-0.87543 -0.320313,-1.22266 -0.207,-0.34722 -0.497156,-0.61381 -0.871093,-0.80078 -0.373937,-0.18696 -0.808604,-0.28125 -1.302735,-0.28125 z m 1.642578,0.20703 c 0.363424,0 0.65625,0.29283 0.65625,0.65625 v 2.875 c 0,0.36343 -0.292826,0.65625 -0.65625,0.65625 -0.363424,0 -0.654297,-0.29282 -0.654297,-0.65625 v -2.875 c 0,-0.36342 0.290873,-0.65625 0.654297,-0.65625 z m -1.642578,6.27734 v 0.97852 h 0.980469 v -0.97852 z" /><path
         id="path68"
         style="font-weight:normal;font-size:13.2024px;line-height:5.77604px;font-family:'Plus Jakarta Sans';-inkscape-font-specification:'Plus Jakarta Sans';display:inline;fill:url(#linearGradient68);stroke:url(#linearGradient70);stroke-width:0.5;stroke-linecap:round;stroke-linejoin:round;stroke-dasharray:none;paint-order:stroke fill markers"
         d="m 64.803339,104.93319 -2.714838,7.43554 h 0.839842 c 0.54828,-1.46565 0.576969,-1.63292 2.304688,-6.50195 l 2.304687,6.50195 h 0.839843 l -2.714846,-7.43554 z m -0.07617,4.54101 v 1.05078 h 1.011719 v -1.05078 z" /></g><g
       id="g70"
       style="display:inline"
       transform="matrix(1.3178581,0,0,1.3178581,-25.685843,-31.920987)"><path
         id="path66"
         style="font-weight:normal;font-size:13.2501px;line-height:5.79696px;font-family:Outfit;-inkscape-font-specification:Outfit;display:none;fill:url(#linearGradient71);stroke:url(#linearGradient72);stroke-width:0.5;stroke-linecap:round;stroke-linejoin:round;stroke-dasharray:none;stroke-opacity:1;paint-order:stroke fill markers"
         d="m 62.052958,104.91946 v 0.92475 h 2.512132 0.02515 0.167755 l -2.350667,6.53825 h 0.819902 l 2.344378,-6.53825 h 0.02935 0.01678 2.51213 v -0.92475 h -2.226947 -0.811513 z m 2.537295,6.41244 v 1.05056 h 1.010724 v -1.05056 z" /><path
         style="font-weight:normal;font-size:13.2501px;line-height:5.79696px;font-family:Outfit;-inkscape-font-specification:Outfit;display:inline;fill:url(#linearGradient73);stroke:url(#linearGradient74);stroke-width:0.5;stroke-linecap:round;stroke-linejoin:round;stroke-dasharray:none;paint-order:normal"
         d="m 57.888034,112.38251 q -0.783929,0 -1.452882,-0.28221 -0.668953,-0.29267 -1.170667,-0.80484 -0.491263,-0.51215 -0.763024,-1.19157 -0.271762,-0.6794 -0.271762,-1.45287 0,-0.78393 0.271762,-1.46333 0.271761,-0.6794 0.763024,-1.18112 0.501714,-0.51217 1.160214,-0.79439 0.668953,-0.29266 1.452881,-0.29266 0.857096,0 1.505145,0.29266 0.648047,0.29268 1.149762,0.79439 l -0.679405,0.6794 q -0.34493,-0.38673 -0.846644,-0.60623 -0.491262,-0.2195 -1.128858,-0.2195 -0.57488,0 -1.05569,0.20904 -0.48081,0.1986 -0.83619,0.57489 -0.355382,0.37628 -0.553977,0.88844 -0.188143,0.51218 -0.188143,1.11841 0,0.60624 0.188143,1.11841 0.198595,0.51216 0.553977,0.88845 0.35538,0.37629 0.83619,0.58533 0.48081,0.1986 1.05569,0.1986 0.679407,0 1.181121,-0.2195 0.501713,-0.22996 0.846643,-0.61669 l 0.679404,0.66895 q -0.501715,0.52262 -1.181119,0.81529 -0.668953,0.29266 -1.515595,0.29265 z"
         id="path67" /><path
         id="path69"
         style="font-weight:500;font-size:13.2501px;line-height:5.79696px;font-family:'Plus Jakarta Sans';-inkscape-font-specification:'Plus Jakarta Sans Medium';display:inline;fill:url(#linearGradient75);stroke:url(#linearGradient76);stroke-width:0.5;stroke-linecap:round;stroke-linejoin:round;stroke-opacity:1;paint-order:stroke fill markers"
         d="m 48.063439,104.91957 v 4.60547 h 2.195312 c 0.0071,0 0.01474,7.5e-4 0.02148,0.002 h 0.416015 c 0.500808,0 0.935475,-0.0923 1.302735,-0.27929 0.373937,-0.19365 0.664093,-0.46219 0.871093,-0.80274 0.213678,-0.34723 0.320313,-0.75328 0.320313,-1.2207 0,-0.46742 -0.106635,-0.87543 -0.320313,-1.22266 -0.207,-0.34722 -0.497156,-0.61381 -0.871093,-0.80078 -0.373937,-0.18696 -0.808604,-0.28125 -1.302735,-0.28125 z m 1.642578,0.20703 c 0.363424,0 0.65625,0.29283 0.65625,0.65625 v 2.875 c 0,0.36343 -0.292826,0.65625 -0.65625,0.65625 -0.363424,0 -0.654297,-0.29282 -0.654297,-0.65625 v -2.875 c 0,-0.36342 0.290873,-0.65625 0.654297,-0.65625 z m -1.642578,6.27734 v 0.97852 h 0.980469 v -0.97852 z" /><path
         id="path70"
         style="font-weight:normal;font-size:13.2024px;line-height:5.77604px;font-family:'Plus Jakarta Sans';-inkscape-font-specification:'Plus Jakarta Sans';display:inline;fill:url(#linearGradient77);stroke:url(#linearGradient78);stroke-width:0.5;stroke-linecap:round;stroke-linejoin:round;stroke-dasharray:none;paint-order:stroke fill markers"
         d="m 64.803339,104.93319 -2.714838,7.43554 h 0.839842 c 0.54828,-1.46565 0.576969,-1.63292 2.304688,-6.50195 l 2.304687,6.50195 h 0.839843 l -2.714846,-7.43554 z m -0.07617,4.54101 v 1.05078 h 1.011719 v -1.05078 z" /></g></g></svg>
