<?xml version="1.0" encoding="UTF-8" standalone="no"?>
<!-- Created with Inkscape (http://www.inkscape.org/) -->

<svg
   width="91.553566"
   height="10.38282"
   viewBox="0 0 91.553566 10.38282"
   version="1.1"
   id="svg1"
   xml:space="preserve"
   sodipodi:docname="drawing V2.svg"
   inkscape:version="1.4.2 (f4327f4, 2025-05-13)"
   inkscape:export-filename="v2\svg\pcawb.svg"
   inkscape:export-xdpi="864"
   inkscape:export-ydpi="864"
   xmlns:inkscape="http://www.inkscape.org/namespaces/inkscape"
   xmlns:sodipodi="http://sodipodi.sourceforge.net/DTD/sodipodi-0.dtd"
   xmlns:xlink="http://www.w3.org/1999/xlink"
   xmlns="http://www.w3.org/2000/svg"
   xmlns:svg="http://www.w3.org/2000/svg"><sodipodi:namedview
     id="namedview1"
     pagecolor="#1a2d4b"
     bordercolor="#999999"
     borderopacity="1"
     inkscape:showpageshadow="2"
     inkscape:pageopacity="0"
     inkscape:pagecheckerboard="0"
     inkscape:deskcolor="#d1d1d1"
     inkscape:document-units="px"
     inkscape:zoom="4"
     inkscape:cx="34.125"
     inkscape:cy="62.624999"
     inkscape:window-width="1920"
     inkscape:window-height="991"
     inkscape:window-x="-9"
     inkscape:window-y="-9"
     inkscape:window-maximized="1"
     inkscape:current-layer="layer1"
     inkscape:export-bgcolor="#ffffff00"><inkscape:page
       x="0"
       y="0"
       width="91.553566"
       height="10.38282"
       id="page2"
       margin="0"
       bleed="0" /></sodipodi:namedview><defs
     id="defs1"><linearGradient
       id="linearGradient12"
       inkscape:collect="always"><stop
         style="stop-color:#2c67f2;stop-opacity:1;"
         offset="0"
         id="stop11" /><stop
         style="stop-color:#62cff4;stop-opacity:1;"
         offset="1"
         id="stop12" /></linearGradient><linearGradient
       id="linearGradient14"
       inkscape:collect="always"><stop
         style="stop-color:#2c67f2;stop-opacity:1;"
         offset="0"
         id="stop14" /><stop
         style="stop-color:#62cff4;stop-opacity:1;"
         offset="1"
         id="stop15" /></linearGradient><linearGradient
       id="linearGradient49"
       inkscape:collect="always"><stop
         style="stop-color:#1a2d4b;stop-opacity:0;"
         offset="0"
         id="stop46" /><stop
         style="stop-color:#054da5;stop-opacity:0;"
         offset="0.56860709"
         id="stop47" /><stop
         style="stop-color:#1a2d4b;stop-opacity:1;"
         offset="0.62889814"
         id="stop48" /><stop
         style="stop-color:#1a2d4b;stop-opacity:1;"
         offset="1"
         id="stop49" /></linearGradient><linearGradient
       id="linearGradient58"
       inkscape:collect="always"><stop
         style="stop-color:#ff8531;stop-opacity:1;"
         offset="0"
         id="stop57" /><stop
         style="stop-color:#ffd380;stop-opacity:1;"
         offset="1"
         id="stop58" /></linearGradient><linearGradient
       id="linearGradient53"
       inkscape:collect="always"><stop
         style="stop-color:#ff8531;stop-opacity:1;"
         offset="0"
         id="stop53" /><stop
         style="stop-color:#ffffff;stop-opacity:1;"
         offset="1"
         id="stop51" /></linearGradient><linearGradient
       inkscape:collect="always"
       xlink:href="#linearGradient58"
       id="linearGradient107"
       x1="62.365433"
       y1="125.71156"
       x2="62.365433"
       y2="117.56247"
       gradientUnits="userSpaceOnUse"
       gradientTransform="matrix(1.0734881,0,0,1.0734881,14.602108,-31.775757)" /><linearGradient
       inkscape:collect="always"
       xlink:href="#linearGradient58"
       id="linearGradient109"
       x1="62.365433"
       y1="125.71156"
       x2="62.365433"
       y2="117.56247"
       gradientUnits="userSpaceOnUse"
       gradientTransform="matrix(1.0734881,0,0,1.0734881,14.602108,-31.775757)" /><linearGradient
       inkscape:collect="always"
       xlink:href="#linearGradient58"
       id="linearGradient118"
       gradientUnits="userSpaceOnUse"
       gradientTransform="translate(6.955e-4,-5.74e-4)"
       x1="7.3904819"
       y1="96.871666"
       x2="7.3904819"
       y2="89.426186" /><linearGradient
       inkscape:collect="always"
       xlink:href="#linearGradient58"
       id="linearGradient119"
       gradientUnits="userSpaceOnUse"
       gradientTransform="translate(20.625993,-5.74e-4)"
       x1="-13.234636"
       y1="96.870644"
       x2="-13.234636"
       y2="89.426903" /><linearGradient
       inkscape:collect="always"
       xlink:href="#linearGradient58"
       id="linearGradient120"
       gradientUnits="userSpaceOnUse"
       gradientTransform="translate(0.56348754,5.6580046)"
       x1="7.3904819"
       y1="96.871666"
       x2="7.3904819"
       y2="89.426186" /><linearGradient
       inkscape:collect="always"
       xlink:href="#linearGradient58"
       id="linearGradient121"
       gradientUnits="userSpaceOnUse"
       gradientTransform="translate(0.56588493,-12.100197)"
       x1="7.3887262"
       y1="114.62864"
       x2="7.3887262"
       y2="107.1849" /><linearGradient
       inkscape:collect="always"
       xlink:href="#linearGradient58"
       id="linearGradient122"
       gradientUnits="userSpaceOnUse"
       x1="7.3904819"
       y1="96.871666"
       x2="7.3904819"
       y2="89.426186" /><linearGradient
       inkscape:collect="always"
       xlink:href="#linearGradient58"
       id="linearGradient123"
       gradientUnits="userSpaceOnUse"
       x1="7.3904819"
       y1="96.871666"
       x2="7.3904819"
       y2="89.426186" /><linearGradient
       inkscape:collect="always"
       xlink:href="#linearGradient14"
       id="linearGradient126"
       gradientUnits="userSpaceOnUse"
       x1="45.405018"
       y1="97.845543"
       x2="45.405018"
       y2="89.128059"
       gradientTransform="matrix(1.0434114,0,0,1.0434114,-1.15843,1.228381)" /><linearGradient
       inkscape:collect="always"
       xlink:href="#linearGradient14"
       id="linearGradient127"
       gradientUnits="userSpaceOnUse"
       x1="45.405018"
       y1="97.845543"
       x2="45.405018"
       y2="89.128059"
       gradientTransform="matrix(1.0434114,0,0,1.0434114,-1.15843,1.228381)" /><linearGradient
       inkscape:collect="always"
       xlink:href="#linearGradient14"
       id="linearGradient129"
       gradientUnits="userSpaceOnUse"
       x1="116.33316"
       y1="94.512985"
       x2="89.317627"
       y2="94.512985"
       gradientTransform="translate(-2.715692,5.5071812)" /><linearGradient
       inkscape:collect="always"
       xlink:href="#linearGradient14"
       id="linearGradient183"
       gradientUnits="userSpaceOnUse"
       x1="60"
       y1="72.228951"
       x2="60"
       y2="29.896797" /><linearGradient
       inkscape:collect="always"
       xlink:href="#linearGradient49"
       id="linearGradient184"
       gradientUnits="userSpaceOnUse"
       gradientTransform="matrix(0.9999785,0,0,0.9999785,2.0320783e-4,5.1698672e-4)"
       x1="60.001091"
       y1="7.6898232"
       x2="60.001091"
       y2="63.814671" /><linearGradient
       inkscape:collect="always"
       xlink:href="#linearGradient58"
       id="linearGradient185"
       gradientUnits="userSpaceOnUse"
       x1="54.204292"
       y1="54.991409"
       x2="65.795746"
       y2="54.991409" /><linearGradient
       inkscape:collect="always"
       xlink:href="#linearGradient58"
       id="linearGradient186"
       gradientUnits="userSpaceOnUse"
       x1="54.204292"
       y1="54.991409"
       x2="65.795746"
       y2="54.991409" /><linearGradient
       inkscape:collect="always"
       xlink:href="#linearGradient53"
       id="linearGradient187"
       gradientUnits="userSpaceOnUse"
       x1="60"
       y1="35.602631"
       x2="60"
       y2="74.464325" /><linearGradient
       inkscape:collect="always"
       xlink:href="#linearGradient14"
       id="linearGradient207"
       x1="113.61747"
       y1="100.02017"
       x2="86.601936"
       y2="100.02017"
       gradientUnits="userSpaceOnUse" /><linearGradient
       inkscape:collect="always"
       xlink:href="#linearGradient58"
       id="linearGradient24"
       x1="81.6922"
       y1="103.27318"
       x2="81.6922"
       y2="94.294281"
       gradientUnits="userSpaceOnUse"
       gradientTransform="matrix(1.0036938,0,0,1.0036938,-0.28639686,-0.34672623)" /><linearGradient
       inkscape:collect="always"
       xlink:href="#linearGradient58"
       id="linearGradient26"
       x1="81.6922"
       y1="103.27318"
       x2="81.6922"
       y2="94.294281"
       gradientUnits="userSpaceOnUse"
       gradientTransform="matrix(1.0036938,0,0,1.0036938,-0.28639686,-0.34672623)" /><linearGradient
       inkscape:collect="always"
       xlink:href="#linearGradient58"
       id="linearGradient27"
       gradientUnits="userSpaceOnUse"
       x1="81.6922"
       y1="103.27318"
       x2="81.6922"
       y2="94.294281"
       gradientTransform="translate(0.0233974,0.01683456)" /><linearGradient
       inkscape:collect="always"
       xlink:href="#linearGradient58"
       id="linearGradient28"
       gradientUnits="userSpaceOnUse"
       x1="81.6922"
       y1="103.27318"
       x2="81.6922"
       y2="94.294281"
       gradientTransform="translate(0.0233974,0.01683456)" /><linearGradient
       inkscape:collect="always"
       xlink:href="#linearGradient12"
       id="linearGradient37"
       x1="125.34056"
       y1="101.53647"
       x2="86.126541"
       y2="101.53647"
       gradientUnits="userSpaceOnUse" /><linearGradient
       inkscape:collect="always"
       xlink:href="#linearGradient14"
       id="linearGradient39"
       x1="125.34056"
       y1="101.53647"
       x2="86.126541"
       y2="101.53647"
       gradientUnits="userSpaceOnUse" /><linearGradient
       inkscape:collect="always"
       xlink:href="#linearGradient14"
       id="linearGradient41"
       x1="12.390694"
       y1="98.639198"
       x2="76.477623"
       y2="98.639198"
       gradientUnits="userSpaceOnUse" /><linearGradient
       inkscape:collect="always"
       xlink:href="#linearGradient14"
       id="linearGradient43"
       x1="12.390694"
       y1="98.639198"
       x2="76.477623"
       y2="98.639198"
       gradientUnits="userSpaceOnUse" /><linearGradient
       inkscape:collect="always"
       xlink:href="#linearGradient14"
       id="linearGradient52"
       x1="79.52565"
       y1="55.398846"
       x2="66.224197"
       y2="55.398846"
       gradientUnits="userSpaceOnUse" /><linearGradient
       inkscape:collect="always"
       xlink:href="#linearGradient14"
       id="linearGradient55"
       x1="79.52565"
       y1="55.398846"
       x2="66.224197"
       y2="55.398846"
       gradientUnits="userSpaceOnUse" /><linearGradient
       inkscape:collect="always"
       xlink:href="#linearGradient14"
       id="linearGradient59"
       x1="40.474342"
       y1="55.398846"
       x2="53.775787"
       y2="55.398846"
       gradientUnits="userSpaceOnUse" /><linearGradient
       inkscape:collect="always"
       xlink:href="#linearGradient14"
       id="linearGradient61"
       x1="40.474342"
       y1="55.398846"
       x2="53.775787"
       y2="55.398846"
       gradientUnits="userSpaceOnUse" /><linearGradient
       inkscape:collect="always"
       xlink:href="#linearGradient49"
       id="linearGradient8"
       gradientUnits="userSpaceOnUse"
       gradientTransform="matrix(0.9999785,0,0,0.9999785,2.0320783e-4,5.1698672e-4)"
       x1="60.001091"
       y1="7.6898232"
       x2="60.001091"
       y2="63.814671" /><linearGradient
       inkscape:collect="always"
       xlink:href="#linearGradient58"
       id="linearGradient10"
       gradientUnits="userSpaceOnUse"
       x1="54.204292"
       y1="54.991409"
       x2="65.795746"
       y2="54.991409" /><linearGradient
       inkscape:collect="always"
       xlink:href="#linearGradient58"
       id="linearGradient13"
       gradientUnits="userSpaceOnUse"
       x1="54.204292"
       y1="54.991409"
       x2="65.795746"
       y2="54.991409" /><linearGradient
       inkscape:collect="always"
       xlink:href="#linearGradient53"
       id="linearGradient16"
       gradientUnits="userSpaceOnUse"
       x1="60"
       y1="35.602631"
       x2="60"
       y2="74.464325" /></defs><g
     inkscape:groupmode="layer"
     id="layer3"
     inkscape:label="Layer 3"
     style="display:inline"
     transform="translate(-13.576658,-76.694253)"><g
       id="g118"
       style="font-weight:500;font-size:13.2501px;line-height:5.79696px;font-family:'Plus Jakarta Sans';-inkscape-font-specification:'Plus Jakarta Sans Medium';display:inline;fill:#0654a9;stroke:#0654a9;stroke-width:0.661436;stroke-linecap:round;stroke-linejoin:round;paint-order:normal"
       aria-label="PoketCode/Team"
       transform="matrix(0.75596747,0,0,0.75596747,10.376842,6.235795)"><path
         id="path111"
         style="font-weight:500;font-size:13.2501px;line-height:5.79696px;font-family:'Plus Jakarta Sans';-inkscape-font-specification:'Plus Jakarta Sans Medium';display:none;fill:url(#linearGradient118);stroke:url(#linearGradient119);stroke-width:0.661436;stroke-linecap:round;stroke-linejoin:round;paint-order:stroke fill markers"
         d="m 4.0002068,88.211977 v 9.872448 h 1.297034 v -3.77742 h 2.185839 c 0.662505,0 1.237513,-0.12214 1.72335,-0.36947 0.494671,-0.25617 0.8785112,-0.61142 1.1523462,-1.06192 0.282669,-0.45934 0.423732,-0.9965 0.423732,-1.61483 0,-0.61834 -0.141063,-1.15808 -0.423732,-1.61742 -0.273835,-0.45933 -0.6576752,-0.81199 -1.1523462,-1.05933 -0.49467,-0.24733 -1.069678,-0.372058 -1.72335,-0.372058 z m 2.17292,0.273878 c 0.480763,0 0.868135,0.38737 0.868135,0.86813 v 3.80326 c 0,0.48076 -0.387372,0.86813 -0.868135,0.86813 -0.480763,0 -0.865551,-0.38737 -0.865551,-0.86813 v -3.80326 c 0,-0.48076 0.384788,-0.86813 0.865551,-0.86813 z" /><path
         id="path112"
         style="font-weight:500;font-size:13.2501px;line-height:5.79696px;font-family:'Plus Jakarta Sans';-inkscape-font-specification:'Plus Jakarta Sans Medium';display:inline;fill:url(#linearGradient120);stroke:url(#linearGradient121);stroke-width:0.661436;stroke-linecap:round;stroke-linejoin:round;stroke-opacity:1;paint-order:stroke fill markers"
         d="m 4.5634609,93.870353 v 6.09245 h 2.9041166 c 0.00938,0 0.019501,0.001 0.028421,0.0026 h 0.5503352 c 0.662505,0 1.2375134,-0.12214 1.7233504,-0.36947 0.4946709,-0.25617 0.8785099,-0.61142 1.1523449,-1.06192 0.282669,-0.45934 0.423733,-0.9965 0.423733,-1.61483 0,-0.61834 -0.141064,-1.15808 -0.423733,-1.61742 -0.273835,-0.45933 -0.657674,-0.81199 -1.1523449,-1.05933 -0.49467,-0.24733 -1.0696784,-0.37206 -1.7233504,-0.37206 z m 2.17292,0.27388 c 0.480763,0 0.8681345,0.38737 0.8681345,0.86813 v 3.80326 c 0,0.48076 -0.3873715,0.86813 -0.8681345,0.86813 -0.480763,0 -0.8655508,-0.38737 -0.8655508,-0.86813 v -3.80326 c 0,-0.48076 0.3847878,-0.86813 0.8655508,-0.86813 z m -2.17292,8.304117 v 1.29445 h 1.2970343 v -1.29445 z" /><path
         style="display:none;fill:url(#linearGradient122);stroke:url(#linearGradient123)"
         d="M 3.9984566,98.084587 V 88.213262 H 7.483233 q 0.9805074,0 1.722513,0.371003 0.7420056,0.371003 1.152759,1.060008 0.424003,0.689006 0.424003,1.616513 0,0.927507 -0.424003,1.616512 -0.4107534,0.675755 -1.152759,1.060008 -0.7287555,0.371003 -1.722513,0.371003 H 5.2969665 v 3.776278 z M 5.2969665,93.1158 h 2.2260168 q 0.5962545,0 1.0335078,-0.225252 0.4372533,-0.225252 0.6757551,-0.649255 0.2385018,-0.424003 0.2385018,-0.980507 0,-0.569755 -0.2385018,-0.980508 Q 8.9937444,89.856275 8.5564911,89.631023 8.1192378,89.405772 7.5229833,89.405772 H 5.2969665 Z"
         id="path113" /><path
         id="path194"
         style="fill:url(#linearGradient43);fill-opacity:1;stroke:url(#linearGradient41);stroke-opacity:1;paint-order:stroke fill markers"
         d="m 66.460487,93.533742 v 3.842012 c -0.238385,-0.29492 -0.535353,-0.538293 -0.888805,-0.728613 -0.459337,-0.25617 -0.984239,-0.384976 -1.576077,-0.384976 -0.671338,0 -1.277528,0.164079 -1.816365,0.490909 -0.530004,0.32684 -0.949109,0.773034 -1.258278,1.338374 -0.309169,0.5565 -0.462489,1.191296 -0.462489,1.906796 0,0.697836 0.15332,1.331126 0.462489,1.896456 0.309169,0.56534 0.728274,1.01154 1.258278,1.33838 0.538837,0.32683 1.145027,0.48832 1.816365,0.48832 0.583004,0 1.107907,-0.12622 1.576077,-0.38239 0.38333,-0.20586 0.692553,-0.48144 0.927561,-0.82421 v 1.049 h 1.206603 V 93.533742 Z m -44.781272,0.02325 v 10.030058 h 1.229857 v -2.14967 l 1.222106,-1.27636 2.369284,3.42603 h 1.457226 l -2.92737,-4.265749 2.743925,-2.875695 h -1.578661 l -3.28651,3.35627 v -6.244884 z m 16.125082,1.245359 v 0.58134 c 0,0.318003 -0.09354,0.575618 -0.279043,0.769953 -0.185501,0.194335 -0.436449,0.291962 -0.754451,0.291962 h -0.266124 v 1.178182 h 1.299618 v 3.764502 c 0,0.72434 0.184498,1.28451 0.555502,1.68201 0.379836,0.3975 0.919579,0.59685 1.617418,0.59685 0.09717,0 0.215221,-0.0107 0.356555,-0.0284 0.141334,-0.009 0.270141,-0.0252 0.384976,-0.0517 v -1.08775 c -0.0795,0.009 -0.168957,0.0196 -0.266124,0.0284 -0.08834,0.009 -0.162951,0.0129 -0.224785,0.0129 -0.291502,0 -0.526108,-0.0501 -0.702776,-0.14728 -0.176668,-0.106 -0.302892,-0.24706 -0.382392,-0.42373 -0.07067,-0.17666 -0.105933,-0.38417 -0.105933,-0.62268 v -3.723162 h 1.601915 V 96.44561 h -1.601915 v -1.643255 z m 17.672738,1.45981 c -0.697839,0 -1.327038,0.164079 -1.883542,0.490909 -0.556504,0.32684 -0.998619,0.768945 -1.325455,1.325455 -0.318002,0.5565 -0.475407,1.191296 -0.475407,1.906796 0,0.715509 0.164074,1.356959 0.490909,1.922299 0.326836,0.56534 0.766368,1.01154 1.322872,1.33838 0.556504,0.318 1.181618,0.4754 1.870623,0.4754 0.671338,0 1.27903,-0.1574 1.8267,-0.4754 0.556505,-0.32684 1.002706,-0.76896 1.338374,-1.32546 0.33567,-0.56534 0.503828,-1.21088 0.503828,-1.935219 0,-0.72433 -0.164074,-1.363214 -0.49091,-1.919714 -0.318002,-0.5565 -0.753449,-0.994527 -1.309953,-1.312537 -0.556504,-0.32683 -1.179034,-0.490909 -1.868039,-0.490909 z m 17.316183,0 c -0.653672,0 -1.245021,0.164079 -1.775025,0.490909 -0.521171,0.31801 -0.936191,0.756037 -1.24536,1.312537 -0.300335,0.5565 -0.44957,1.191285 -0.44957,1.906795 0,0.706678 0.153319,1.348128 0.462489,1.922298 0.309168,0.56534 0.732359,1.01154 1.271197,1.33838 0.538837,0.32683 1.153196,0.48832 1.842202,0.48832 0.494671,0 0.940871,-0.0787 1.338374,-0.2377 0.406336,-0.159 0.75491,-0.3706 1.046412,-0.6356 0.300336,-0.27383 0.522685,-0.57489 0.664019,-0.90172 l -1.033493,-0.52967 c -0.203168,0.34451 -0.468954,0.62663 -0.79579,0.84747 -0.326835,0.22083 -0.7296,0.33072 -1.206604,0.33072 -0.432836,0 -0.833016,-0.1058 -1.204019,-0.3178 -0.362169,-0.22084 -0.646881,-0.52339 -0.850049,-0.91206 -0.146844,-0.30036 -0.22716,-0.63668 -0.242871,-1.00766 h 5.464597 c 0.01767,-0.106 0.02992,-0.21588 0.03876,-0.33072 0.01767,-0.123658 0.02842,-0.236131 0.02842,-0.333301 0,-0.44167 -0.08129,-0.864867 -0.240287,-1.271197 -0.150171,-0.41517 -0.369934,-0.782661 -0.661436,-1.100671 -0.282669,-0.32683 -0.631242,-0.581868 -1.046412,-0.767368 -0.406337,-0.19434 -0.875547,-0.291962 -1.405551,-0.291962 z m -56.387403,0.02325 c -0.697839,0 -1.327038,0.164074 -1.883542,0.49091 -0.556504,0.326835 -0.998619,0.76895 -1.325455,1.325455 -0.318003,0.556504 -0.475407,1.191287 -0.475407,1.906794 0,0.71551 0.164073,1.35696 0.490909,1.9223 0.326836,0.56534 0.766368,1.01153 1.322872,1.33837 0.556504,0.318 1.181618,0.47541 1.870623,0.47541 0.671339,0 1.279028,-0.15741 1.826699,-0.47541 0.556504,-0.32684 1.002704,-0.76896 1.338374,-1.32546 0.335669,-0.56534 0.503829,-1.21087 0.503829,-1.93521 0,-0.72434 -0.164074,-1.363209 -0.49091,-1.919713 -0.318002,-0.556504 -0.753448,-0.994534 -1.309953,-1.312536 -0.556504,-0.326836 -1.179034,-0.49091 -1.868039,-0.49091 z m 15.714268,0 c -0.653671,0 -1.247605,0.164074 -1.777609,0.49091 -0.52117,0.318002 -0.936191,0.756032 -1.24536,1.312536 -0.300336,0.556504 -0.449569,1.191291 -0.449569,1.906796 0,0.706677 0.155903,1.348127 0.465072,1.922297 0.309169,0.56534 0.73236,1.01153 1.271197,1.33837 0.538837,0.32683 1.153197,0.48833 1.842202,0.48833 0.494671,0 0.940872,-0.0787 1.338374,-0.23771 0.406337,-0.159 0.75491,-0.37059 1.046412,-0.63559 0.300336,-0.27383 0.520101,-0.5749 0.661436,-0.90173 l -1.033494,-0.52966 c -0.203168,0.34451 -0.468954,0.62662 -0.79579,0.84746 -0.326836,0.22083 -0.727016,0.33072 -1.20402,0.33072 -0.432837,0 -0.8356,-0.1058 -1.206603,-0.3178 -0.362169,-0.22084 -0.644297,-0.52339 -0.847465,-0.91206 -0.146845,-0.30036 -0.227161,-0.63667 -0.242871,-1.00765 h 5.462013 c 0.01767,-0.106 0.03251,-0.21588 0.04134,-0.33072 0.01767,-0.123668 0.02584,-0.236133 0.02584,-0.3333 0,-0.44167 -0.0787,-0.864861 -0.237703,-1.271197 -0.150171,-0.41517 -0.372518,-0.782668 -0.66402,-1.100671 -0.282672,-0.326829 -0.631245,-0.58186 -1.046415,-0.767362 -0.406336,-0.194334 -0.872963,-0.291962 -1.402967,-0.291962 z m 40.673135,1.077417 c 0.41517,0 0.786753,0.105799 1.113589,0.317799 0.326835,0.212 0.573697,0.498214 0.741531,0.860384 0.10744,0.23184 0.164444,0.485374 0.170527,0.757034 h -4.177897 c 0.03551,-0.25638 0.103033,-0.490986 0.204115,-0.702776 0.194335,-0.39751 0.464205,-0.702642 0.808708,-0.914642 0.344503,-0.212 0.724257,-0.317799 1.139427,-0.317799 z m -40.673135,0.02325 c 0.41517,0 0.784169,0.105797 1.111005,0.317799 0.326835,0.212001 0.576281,0.498214 0.744116,0.860383 0.107439,0.231843 0.164443,0.485373 0.170526,0.757034 h -4.180481 c 0.03551,-0.256379 0.105617,-0.490985 0.206699,-0.702775 0.194335,-0.397503 0.464205,-0.702641 0.808708,-0.914642 0.344502,-0.212002 0.724257,-0.317799 1.139427,-0.317799 z m 23.356952,0.06976 c 0.44167,0 0.837765,0.113966 1.191101,0.343636 0.36217,0.22083 0.644297,0.521883 0.847465,0.901723 0.212001,0.371 0.317799,0.798286 0.317799,1.284116 0,0.477007 -0.105798,0.910947 -0.317799,1.299617 -0.203168,0.38867 -0.485295,0.69381 -0.847465,0.91464 -0.353336,0.22084 -0.749431,0.33072 -1.191101,0.33072 -0.450504,0 -0.857352,-0.10988 -1.219522,-0.33072 -0.353336,-0.22083 -0.638048,-0.52597 -0.850049,-0.91464 -0.212002,-0.38867 -0.317799,-0.82261 -0.317799,-1.299617 0,-0.48583 0.105797,-0.913116 0.317799,-1.284116 0.212001,-0.37984 0.496713,-0.680893 0.850049,-0.901723 0.36217,-0.22967 0.769018,-0.343636 1.219522,-0.343636 z m 8.624503,0 c 0.450503,0 0.853267,0.109878 1.206603,0.330718 0.353336,0.22083 0.631378,0.525971 0.834546,0.914641 0.212002,0.37984 0.3178,0.811205 0.3178,1.297035 0,0.477008 -0.105798,0.910948 -0.3178,1.299618 -0.203168,0.37984 -0.48121,0.68089 -0.834546,0.90172 -0.353336,0.22084 -0.7561,0.33072 -1.206603,0.33072 -0.450504,0 -0.853268,-0.10988 -1.206604,-0.33072 -0.353336,-0.22083 -0.631378,-0.52188 -0.834546,-0.90172 -0.203169,-0.38867 -0.30488,-0.82261 -0.30488,-1.299618 0,-0.49467 0.101711,-0.926035 0.30488,-1.297035 0.203168,-0.37984 0.48121,-0.680893 0.834546,-0.901723 0.362169,-0.22967 0.764934,-0.343636 1.206604,-0.343636 z m -47.695723,0.02325 c 0.44167,0 0.837765,0.113968 1.191101,0.343637 0.36217,0.220835 0.644296,0.521887 0.847465,0.901723 0.212001,0.371003 0.317799,0.798271 0.317799,1.284122 0,0.477 -0.105798,0.91095 -0.317799,1.29962 -0.203169,0.38867 -0.485295,0.6938 -0.847465,0.91464 -0.353336,0.22083 -0.749431,0.33072 -1.191101,0.33072 -0.450503,0 -0.857354,-0.10989 -1.219523,-0.33072 -0.353336,-0.22084 -0.638046,-0.52597 -0.850048,-0.91464 -0.212001,-0.38867 -0.317799,-0.82262 -0.317799,-1.29962 0,-0.485851 0.105798,-0.913119 0.317799,-1.284122 0.212002,-0.379836 0.496712,-0.680888 0.850048,-0.901723 0.362169,-0.229669 0.76902,-0.343637 1.219523,-0.343637 z" /><path
         style="font-weight:normal;font-size:13.2501px;line-height:5.79696px;font-family:Outfit;-inkscape-font-specification:Outfit;display:inline;fill:url(#linearGradient126);stroke:url(#linearGradient127);stroke-width:0.661436;stroke-linecap:round;stroke-linejoin:round;stroke-dasharray:none;paint-order:normal"
         d="m 46.853656,103.70921 q -1.036897,0 -1.921718,-0.37328 -0.884819,-0.38711 -1.548434,-1.06455 -0.649789,-0.67744 -1.009247,-1.57609 -0.359458,-0.898636 -0.359458,-1.921709 0,-1.036898 0.359458,-1.935543 0.359458,-0.898645 1.009247,-1.56226 0.663615,-0.67744 1.534609,-1.050723 0.88482,-0.387108 1.921718,-0.387108 1.133675,0 1.990845,0.387108 0.857168,0.387109 1.520784,1.050723 l -0.898646,0.898646 q -0.456235,-0.511537 -1.11985,-0.801868 -0.64979,-0.290331 -1.493133,-0.290331 -0.760391,0 -1.396355,0.276506 -0.635965,0.262681 -1.106025,0.760391 -0.470059,0.497711 -0.73274,1.175151 -0.248856,0.677441 -0.248856,1.479308 0,0.801867 0.248856,1.479299 0.262681,0.67744 0.73274,1.17516 0.47006,0.49771 1.106025,0.77421 0.635964,0.26268 1.396355,0.26268 0.898646,0 1.56226,-0.29033 0.663615,-0.30415 1.11985,-0.81569 l 0.898644,0.88482 q -0.663615,0.69126 -1.562259,1.07837 -0.88482,0.38711 -2.00467,0.38711 z"
         id="path115" /><path
         id="path97"
         style="font-weight:normal;font-size:13.2501px;line-height:5.79696px;font-family:Outfit;-inkscape-font-specification:Outfit;display:none;fill:url(#linearGradient109);stroke:url(#linearGradient107);stroke-width:0.661436;stroke-linecap:round;stroke-linejoin:round;stroke-dasharray:none;stroke-opacity:1;paint-order:stroke fill markers"
         d="m 77.533444,93.865846 v 1.223163 h 3.322782 0.03328 0.221889 l -3.109214,8.648081 h 1.08448 l 3.100894,-8.648081 h 0.03883 0.02219 3.322781 v -1.223163 h -2.945572 -1.073385 z m 3.356065,8.481674 v 1.38956 h 1.336878 v -1.38956 z" /><path
         id="path118"
         style="font-weight:500;font-size:13.2501px;line-height:5.79696px;font-family:'Plus Jakarta Sans';-inkscape-font-specification:'Plus Jakarta Sans Medium';display:none;fill:url(#linearGradient207);fill-opacity:1;stroke:url(#linearGradient129);stroke-width:0.661404;stroke-linecap:round;stroke-linejoin:round;stroke-dasharray:none;paint-order:stroke fill markers"
         d="m 90.402609,96.290546 c -0.653671,0 -1.245021,0.16408 -1.775025,0.49091 -0.52117,0.31801 -0.93619,0.75604 -1.245359,1.31254 -0.300336,0.5565 -0.44957,1.19129 -0.44957,1.906814 0,0.70666 0.15332,1.34812 0.462488,1.92228 0.30917,0.56534 0.73236,1.01154 1.271197,1.33838 0.538838,0.32683 1.153197,0.48832 1.842203,0.48832 0.49467,0 0.94087,-0.0787 1.338374,-0.2377 0.406336,-0.159 0.754909,-0.3706 1.046412,-0.6356 0.300335,-0.27384 0.522685,-0.57489 0.664019,-0.90172 l -1.033493,-0.52966 c -0.203168,0.34449 -0.468954,0.62662 -0.79579,0.84746 -0.326836,0.22083 -0.7296,0.33071 -1.206604,0.33071 -0.432836,0 -0.833017,-0.10579 -1.20402,-0.3178 -0.362169,-0.22083 -0.646879,-0.52338 -0.850048,-0.91204 -0.146844,-0.30038 -0.227161,-0.63669 -0.242871,-1.00767 h 5.464597 c 0.01767,-0.106 0.02992,-0.21588 0.03876,-0.33072 0.01767,-0.123654 0.02842,-0.236138 0.02842,-0.333307 0,-0.441667 -0.08129,-0.864857 -0.240288,-1.271187 -0.15017,-0.41517 -0.369936,-0.78267 -0.661438,-1.10068 -0.282669,-0.32683 -0.631243,-0.58186 -1.046412,-0.76736 -0.406337,-0.19434 -0.875548,-0.29197 -1.405552,-0.29197 z m 15.727191,0 c -0.48584,0 -0.92129,0.12064 -1.30996,0.35914 -0.28043,0.17209 -0.50687,0.39965 -0.67693,0.68211 v -0.88105 h -1.20661 v 7.141434 h 1.23244 v -4.226984 c 0,-0.38867 0.0705,-0.72091 0.21187,-0.99474 0.15017,-0.28267 0.34951,-0.49835 0.59684,-0.64852 0.25617,-0.159 0.54496,-0.2377 0.86297,-0.2377 0.32683,0 0.60896,0.0787 0.84746,0.2377 0.24734,0.15017 0.44001,0.36176 0.58134,0.6356 0.14134,0.27384 0.21187,0.61015 0.21187,1.00766 v 4.226984 h 1.24794 v -4.226984 c 0,-0.38867 0.0705,-0.72091 0.21187,-0.99474 0.15017,-0.28267 0.34692,-0.49835 0.59426,-0.64852 0.25617,-0.159 0.54497,-0.2377 0.86297,-0.2377 0.32684,0 0.60896,0.0787 0.84746,0.2377 0.24733,0.15017 0.44259,0.36176 0.58392,0.6356 0.14134,0.27384 0.21187,0.61015 0.21187,1.00766 v 4.226984 h 1.24536 v -4.624884 c 0,-0.51234 -0.12064,-0.97079 -0.35914,-1.37713 -0.2385,-0.40633 -0.55998,-0.72631 -0.96632,-0.95598 -0.3975,-0.22967 -0.8437,-0.34364 -1.33837,-0.34364 -0.53883,0 -1.02847,0.14515 -1.47014,0.43665 -0.32585,0.20855 -0.58354,0.49246 -0.76996,0.85005 -0.17794,-0.325 -0.42882,-0.59816 -0.75445,-0.82162 -0.44166,-0.30917 -0.94206,-0.46508 -1.49856,-0.46508 z m -7.828722,0.0413 c -0.3975,0 -0.78392,0.0746 -1.15492,0.22479 -0.37101,0.14133 -0.70066,0.334 -0.99216,0.58134 -0.28267,0.24733 -0.49018,0.52129 -0.62268,0.82163 l 0.89914,0.49091 c 0.159,-0.34451 0.40436,-0.62255 0.7312,-0.83455 0.32683,-0.22084 0.70659,-0.33072 1.13942,-0.33072 0.49468,0 0.89486,0.13289 1.20402,0.3979 0.30918,0.265 0.46508,0.60949 0.46508,1.03349 v 0.36689 l -2.57082,0.426317 c -0.52117,0.0883 -0.95103,0.24015 -1.2867,0.452163 -0.33567,0.211994 -0.58253,0.471114 -0.74153,0.780284 -0.159,0.30033 -0.2377,0.63666 -0.2377,1.00765 0,0.38867 0.10171,0.73316 0.30488,1.03349 0.20317,0.30034 0.48121,0.53903 0.83454,0.7157 0.35334,0.16783 0.7561,0.25062 1.20661,0.25062 0.41516,0 0.79492,-0.0598 1.13942,-0.18344 0.35334,-0.13251 0.65848,-0.30475 0.91465,-0.51675 0.17743,-0.14786 0.32257,-0.30775 0.43665,-0.47541 v 1.01799 h 0.992142 v -4.875504 c 0,-0.46817 -0.11397,-0.87911 -0.34363,-1.23244 -0.22083,-0.36217 -0.53415,-0.64688 -0.940482,-0.85005 -0.3975,-0.20317 -0.85595,-0.3023 -1.37713,-0.3023 z m -7.898469,1.05933 c 0.41517,0 0.786754,0.1058 1.11359,0.3178 0.326836,0.212 0.573697,0.49822 0.741531,0.86039 0.10744,0.23184 0.164443,0.48537 0.170527,0.75703 h -4.177898 c 0.03551,-0.25638 0.103033,-0.49098 0.204115,-0.70277 0.194335,-0.39751 0.464206,-0.70265 0.808709,-0.91465 0.344503,-0.212 0.724256,-0.3178 1.139426,-0.3178 z m 9.567569,2.59408 v 0.532244 c 0,0.43284 -0.10171,0.82485 -0.30488,1.17819 -0.20317,0.35333 -0.4853,0.63804 -0.84747,0.85004 -0.36217,0.20317 -0.78795,0.30488 -1.27378,0.30488 -0.3975,0 -0.72307,-0.11247 -0.97923,-0.3333 -0.24734,-0.22084 -0.37206,-0.48812 -0.37206,-0.80611 0,-0.32684 0.10988,-0.61156 0.33072,-0.85006 0.22966,-0.2385 0.60125,-0.39999 1.11358,-0.48833 z" /><path
         id="path10"
         style="font-weight:normal;font-size:13.2024px;line-height:5.77604px;-inkscape-font-specification:'Plus Jakarta Sans';display:inline;fill:url(#linearGradient37);fill-opacity:1;stroke:url(#linearGradient39);stroke-width:0.661404;stroke-opacity:1;paint-order:stroke fill markers"
         d="m 89.942534,96.46614 c -0.668922,0 -1.267513,0.158527 -1.795609,0.475384 -0.519295,0.316858 -0.932077,0.744573 -1.240133,1.28147 -0.299254,0.536898 -0.449548,1.139609 -0.449548,1.808526 0,0.66012 0.150294,1.26283 0.449548,1.80853 0.308056,0.5369 0.727538,0.96461 1.255634,1.28147 0.528096,0.31685 1.119988,0.47538 1.780108,0.47538 0.572104,0 1.102248,-0.13794 1.586336,-0.41079 0.389303,-0.22651 0.699656,-0.52718 0.935267,-0.90168 v 1.13937 c 0,0.47529 -0.108079,0.87572 -0.328119,1.20138 -0.22004,0.32566 -0.512394,0.57169 -0.87326,0.73891 -0.360865,0.16724 -0.754598,0.25061 -1.185877,0.25061 -0.563302,0 -1.026532,-0.12301 -1.387398,-0.36945 -0.360866,-0.24644 -0.611005,-0.53621 -0.751831,-0.87068 l -0.912014,0.4883 c 0.158429,0.34327 0.383869,0.64385 0.674322,0.8991 0.299255,0.26404 0.651823,0.47044 1.056697,0.62006 0.413675,0.14963 0.861972,0.22478 1.34606,0.22478 0.651319,0 1.226744,-0.14206 1.728435,-0.42371 0.510493,-0.27285 0.90681,-0.65012 1.188461,-1.13421 0.290453,-0.47528 0.43663,-1.01778 0.43663,-1.62509 v -6.797476 h -0.992106 v 1.069614 C 92.210714,97.355901 91.889544,97.080179 91.50045,96.864016 91.033965,96.599968 90.514638,96.46614 89.942534,96.46614 Z m 8.662843,0 c -0.642516,0 -1.224642,0.158527 -1.743936,0.475384 -0.510493,0.316858 -0.915042,0.752806 -1.214297,1.307307 -0.299255,0.545699 -0.449548,1.175692 -0.449548,1.888619 0,0.71293 0.15441,1.35115 0.462466,1.91445 0.308056,0.56331 0.727538,1.00749 1.255634,1.33315 0.536898,0.31686 1.135489,0.47538 1.795609,0.47538 0.484088,0 0.924152,-0.0793 1.320225,-0.23769 0.40487,-0.16723 0.75074,-0.38444 1.04119,-0.64849 0.29046,-0.27284 0.50766,-0.56673 0.64849,-0.88359 l -0.84484,-0.44955 c -0.22004,0.36967 -0.50828,0.67849 -0.86034,0.92493 -0.352068,0.24644 -0.78543,0.36946 -1.304725,0.36946 -0.448881,0 -0.872479,-0.11478 -1.268552,-0.34362 -0.38727,-0.22884 -0.69609,-0.55001 -0.924932,-0.96369 -0.177768,-0.34132 -0.268435,-0.72681 -0.273863,-1.16004 h 5.567682 c 0.0176,-0.11442 0.0325,-0.22508 0.0413,-0.3307 0.009,-0.11442 0.0129,-0.216851 0.0129,-0.304867 0,-0.422476 -0.0751,-0.831142 -0.22477,-1.227214 -0.14963,-0.404874 -0.36425,-0.765675 -0.6459,-1.082533 -0.28165,-0.325659 -0.62599,-0.579915 -1.030864,-0.764748 C 99.568284,96.564452 99.11587,96.46614 98.605377,96.46614 Z m 8.027273,0 c -0.52809,0 -0.99544,0.133828 -1.40031,0.397876 -0.25788,0.171919 -0.46839,0.384147 -0.63299,0.638151 v -0.875843 h -0.9921 v 7.076506 h 0.9921 v -4.213867 c 0,-0.422476 0.0793,-0.783278 0.23769,-1.082532 0.15843,-0.308056 0.37717,-0.539146 0.65882,-0.697575 0.28165,-0.16723 0.60282,-0.253194 0.96369,-0.253194 0.36087,0 0.67792,0.08596 0.95077,0.253194 0.28165,0.158429 0.49628,0.385403 0.6459,0.684657 0.15844,0.299254 0.23769,0.664172 0.23769,1.09545 v 4.213867 h 0.99211 v -4.596241 c 0,-0.501691 -0.11889,-0.949989 -0.35654,-1.346061 -0.22884,-0.404873 -0.54589,-0.721926 -0.95077,-0.950768 -0.39607,-0.228841 -0.84436,-0.34362 -1.34606,-0.34362 z m 7.77409,0 c -0.69533,0 -1.30627,0.162643 -1.83437,0.488302 -0.52809,0.316857 -0.94088,0.752806 -1.24013,1.307307 -0.29925,0.5545 -0.44955,1.184488 -0.44955,1.888621 0,0.70412 0.1503,1.33823 0.44955,1.90153 0.29925,0.5545 0.71204,0.99457 1.24013,1.32023 0.5281,0.32566 1.13904,0.4883 1.83437,0.4883 0.44008,0 0.85544,-0.0793 1.24271,-0.23769 0.38727,-0.15843 0.72902,-0.37564 1.02828,-0.64849 0.29925,-0.27284 0.52469,-0.57908 0.67432,-0.92235 l -0.8991,-0.4883 c -0.18483,0.39608 -0.45555,0.71312 -0.81642,0.95077 -0.35206,0.23764 -0.76331,0.35654 -1.22979,0.35654 -0.46649,0 -0.88751,-0.1189 -1.26597,-0.35654 -0.36967,-0.23765 -0.66614,-0.55881 -0.88618,-0.96369 -0.21124,-0.41367 -0.3152,-0.8769 -0.3152,-1.38739 0,-0.5193 0.10396,-0.98253 0.3152,-1.387403 0.22004,-0.413675 0.51651,-0.734845 0.88618,-0.963686 0.37846,-0.237644 0.79948,-0.356539 1.26597,-0.356539 0.46648,0 0.88185,0.118895 1.24271,0.356539 0.36087,0.237642 0.62747,0.546462 0.8035,0.924932 l 0.8991,-0.462466 c -0.14963,-0.352064 -0.37507,-0.658301 -0.67432,-0.922349 -0.29926,-0.27285 -0.64101,-0.490057 -1.02828,-0.648486 -0.38727,-0.158429 -0.80263,-0.237692 -1.24271,-0.237692 z m 3.81599,0.160184 2.83163,7.081676 -0.25577,0.60198 c -0.22004,0.51049 -0.44549,0.85224 -0.67433,1.02828 -0.22884,0.18483 -0.55824,0.27644 -0.98952,0.27644 -0.14083,0 -0.28288,-0.0123 -0.42371,-0.0387 -0.13202,-0.0176 -0.2401,-0.03 -0.32812,-0.0388 v 0.92494 c 0.14083,0.0528 0.2803,0.0857 0.42113,0.10334 0.14963,0.0264 0.2958,0.0413 0.43663,0.0413 0.46649,0 0.8628,-0.0983 1.18846,-0.29195 0.32566,-0.18483 0.59227,-0.43085 0.8035,-0.73891 0.22004,-0.30806 0.40173,-0.63335 0.54256,-0.97661 l 3.23468,-7.973016 h -1.09545 l -2.30458,5.838956 -2.3175,-5.838956 z m -19.617353,0.764748 c 0.44008,0 0.836397,0.114779 1.188461,0.34362 0.352062,0.22004 0.618672,0.52216 0.803502,0.909431 0.13915,0.271981 0.20845,0.572569 0.20669,0.899096 h -4.54457 c 0.03281,-0.312137 0.114399,-0.593674 0.245443,-0.84484 0.211238,-0.413675 0.501009,-0.734845 0.870676,-0.963687 0.378469,-0.228841 0.789718,-0.34362 1.229798,-0.34362 z m -8.608588,0.06459 c 0.457684,0 0.870466,0.118895 1.240133,0.356539 0.369667,0.228841 0.666138,0.541778 0.886178,0.93785 0.228842,0.387271 0.341037,0.814989 0.341037,1.281469 0,0.46649 -0.112195,0.89832 -0.341037,1.29439 -0.22004,0.38727 -0.516511,0.70021 -0.886178,0.93785 -0.369667,0.22884 -0.782449,0.34104 -1.240133,0.34104 -0.475286,0 -0.903002,-0.1122 -1.28147,-0.34104 -0.369668,-0.23764 -0.663555,-0.55058 -0.883595,-0.93785 -0.211238,-0.39607 -0.317784,-0.8279 -0.317784,-1.29439 0,-0.475282 0.106546,-0.907117 0.317784,-1.294387 0.22004,-0.387271 0.518044,-0.696091 0.896513,-0.924932 0.378469,-0.237644 0.802068,-0.356539 1.268552,-0.356539 z" /><path
         style="font-weight:normal;font-size:13.2024px;line-height:5.77604px;-inkscape-font-specification:'Plus Jakarta Sans';display:none;fill:url(#linearGradient26);stroke:url(#linearGradient24);stroke-width:0.661404;stroke-dasharray:none;paint-order:stroke fill markers"
         d="m 77.533448,103.73795 3.604318,-9.872116 h 1.1396 l 3.604318,9.872116 h -1.113098 l -0.848075,-2.4117 h -4.412639 l -0.861326,2.4117 z m 2.318954,-3.40554 h 3.697077 l -2.000927,-5.671506 h 0.318028 z"
         id="text3" /><path
         id="path26"
         style="font-weight:normal;font-size:13.2024px;line-height:5.77604px;-inkscape-font-specification:'Plus Jakarta Sans';fill:url(#linearGradient27);stroke:url(#linearGradient28);stroke-width:0.661404;stroke-dasharray:none;paint-order:stroke fill markers"
         d="m 81.147125,93.883993 -3.59121,9.835797 h 1.11095 c 0.72527,-1.93878 0.76322,-2.16004 3.04866,-8.600827 l 3.04866,8.600827 h 1.11095 l -3.59122,-9.835797 z m -0.10076,6.006889 v 1.389978 h 1.33831 v -1.389978 z" /></g></g><g
     inkscape:groupmode="layer"
     id="layer1"
     inkscape:label="Layer 4"
     style="display:none"
     transform="matrix(2.2456164,0,0,2.2456164,-68.194074,-266.55418)"><g
       id="g183"
       style="font-weight:500;font-size:24.4106px;line-height:10.6796px;font-family:Fredoka;-inkscape-font-specification:'Fredoka Medium';display:inline;fill:url(#linearGradient16);stroke:#000000;stroke-width:0;stroke-linecap:round;stroke-linejoin:round;paint-order:stroke fill markers"
       transform="matrix(0,0.31773684,-0.31546331,0,59.263289,92.201419)"><path
         d="M 77.348623,32.164594 H 42.67028 c -2.088261,0 -3.836351,1.748089 -3.836351,3.836351 v 12.775239 c 0,11.783079 9.420792,21.184972 21.184971,21.184972 11.716937,0 21.147176,-9.401893 21.147176,-21.184972 V 36.000945 c 0,-2.116607 -1.672501,-3.836351 -3.817453,-3.836351 z"
         id="path178"
         style="font-weight:500;font-size:24.4106px;line-height:10.6796px;font-family:Fredoka;-inkscape-font-specification:'Fredoka Medium';fill:url(#linearGradient183);fill-opacity:1;stroke:none;stroke-width:0.0944914;stroke-linecap:round;stroke-linejoin:round;paint-order:stroke fill markers"
         sodipodi:nodetypes="ssssssss"
         transform="matrix(1.3228716,0,0,1.3228716,-19.372295,-12.558228)" /><rect
         style="fill:#1a2d4b;fill-opacity:1;stroke:none;stroke-width:0;stroke-linecap:round;stroke-linejoin:round;stroke-opacity:1;paint-order:stroke fill markers"
         id="rect178"
         width="35.986015"
         height="4.6713977"
         x="42.006992"
         y="34.183697"
         ry="2.3356988"
         transform="matrix(1.3228716,0,0,1.3228716,-19.372295,-12.558228)" /><path
         id="path179"
         style="font-weight:500;font-size:24.4106px;line-height:10.6796px;font-family:Fredoka;-inkscape-font-specification:'Fredoka Medium';display:inline;fill:none;fill-opacity:0;stroke:url(#linearGradient8);stroke-width:0.661421;stroke-linecap:round;stroke-linejoin:round;stroke-dasharray:none;stroke-opacity:1;paint-order:stroke fill markers"
         d="m 37.07503,29.990388 c -2.762444,0 -5.074345,2.311906 -5.074345,5.074347 v 1.374513 0.0026 c 0.002,2.760839 2.313109,5.071753 5.074345,5.071753 h 45.873203 c 2.837435,0 5.05109,-2.274404 5.05109,-5.074346 v -1.374514 c 0,-2.799942 -2.213655,-5.074348 -5.05109,-5.074348 z m 2.211626,2.671522 h 41.426695 c 1.71173,1.3e-5 3.087495,1.378349 3.087495,3.090082 0,1.711733 -1.375765,3.090082 -3.087495,3.090082 H 39.286656 c -0.106981,0 -0.213686,-0.005 -0.317791,-0.0155 -1.561568,-0.157696 -2.769703,-1.469825 -2.769703,-3.074578 0,-1.711733 1.375767,-3.090082 3.087494,-3.090082 z" /><g
         id="g182"
         style="font-weight:bold;font-size:27.1623px;line-height:11.8834px;font-family:Quicksand;-inkscape-font-specification:'Quicksand Bold';display:inline;fill:#ffffff;stroke:#ffffff;stroke-width:1.32287;stroke-linecap:round;stroke-linejoin:round;stroke-dasharray:none;paint-order:stroke fill markers"
         aria-label="&lt;/&gt;"
         transform="translate(1.0807179e-5,1.7467816)"><path
           style="font-weight:500;font-family:Outfit;-inkscape-font-specification:'Outfit Medium';stroke-width:1.32287;stroke-dasharray:none"
           d="M 53.114351,61.781985 41.135777,56.485336 v -2.172984 l 11.978574,-5.296648 v 3.015015 l -9.479643,3.911371 v -1.086492 l 9.479643,3.911371 z"
           id="path180" /><path
           style="font-weight:500;font-family:Outfit;-inkscape-font-specification:'Outfit Medium';fill:url(#linearGradient10);stroke:url(#linearGradient13);stroke-width:1.32287;stroke-dasharray:none"
           d="m 54.798438,65.584707 7.605444,-21.186594 h 2.797717 l -7.605444,21.186594 z"
           id="path181" /><path
           style="font-weight:500;font-family:Outfit;-inkscape-font-specification:'Outfit Medium';stroke-width:1.32287;stroke-dasharray:none"
           d="m 66.885635,52.030719 v -3.015015 l 11.978575,5.296648 v 2.172984 l -11.978575,5.296649 v -3.015016 l 9.479643,-3.911371 v 1.086492 z"
           id="path182" /></g></g><g
       id="g49"
       style="font-weight:500;font-size:24.4106px;line-height:10.6796px;font-family:Fredoka;-inkscape-font-specification:'Fredoka Medium';display:none;fill:url(#linearGradient187);stroke:#000000;stroke-width:0;stroke-linecap:round;stroke-linejoin:round;paint-order:stroke fill markers"
       transform="matrix(0,0.31773684,-0.31546331,0,59.263289,92.201419)"><path
         id="path44"
         style="font-weight:500;font-size:24.4106px;line-height:10.6796px;font-family:Fredoka;-inkscape-font-specification:'Fredoka Medium';fill:#ffffff;fill-opacity:1;stroke:none;stroke-width:0.0944914;stroke-linecap:round;stroke-linejoin:round;paint-order:stroke fill markers"
         d="m 38.833833,48.775499 c 0,11.783079 9.420619,21.185333 21.184798,21.185333 11.716937,0 21.147552,-9.402254 21.147552,-21.185333 V 36.001774 c 0,-2.116607 -1.672782,-3.83691 -3.817734,-3.83691 h -34.67826 c -2.088261,0 -3.836356,1.748648 -3.836356,3.83691 z m 3.172132,-12.256857 c 0,-1.293977 1.042186,-2.334242 2.336163,-2.334242 h 31.315759 c 1.293977,0 2.334094,1.040265 2.334094,2.334242 0,1.293977 -1.040117,2.336327 -2.334094,2.336327 H 44.342128 c -1.293977,0 -2.336163,-1.04235 -2.336163,-2.336327 z"
         transform="matrix(1.3228716,0,0,1.3228716,-19.372295,-12.558228)" /><path
         id="path45"
         style="font-weight:500;font-size:24.4106px;line-height:10.6796px;font-family:Fredoka;-inkscape-font-specification:'Fredoka Medium';display:inline;fill:none;fill-opacity:0;stroke:url(#linearGradient184);stroke-width:0.661421;stroke-linecap:round;stroke-linejoin:round;stroke-dasharray:none;stroke-opacity:1;paint-order:stroke fill markers"
         d="m 37.07503,29.990388 c -2.762444,0 -5.074345,2.311906 -5.074345,5.074347 v 1.374513 0.0026 c 0.002,2.760839 2.313109,5.071753 5.074345,5.071753 h 45.873203 c 2.837435,0 5.05109,-2.274404 5.05109,-5.074346 v -1.374514 c 0,-2.799942 -2.213655,-5.074348 -5.05109,-5.074348 z m 2.211626,2.671522 h 41.426695 c 1.71173,1.3e-5 3.087495,1.378349 3.087495,3.090082 0,1.711733 -1.375765,3.090082 -3.087495,3.090082 H 39.286656 c -0.106981,0 -0.213686,-0.005 -0.317791,-0.0155 -1.561568,-0.157696 -2.769703,-1.469825 -2.769703,-3.074578 0,-1.711733 1.375767,-3.090082 3.087494,-3.090082 z" /><g
         id="g48"
         style="font-weight:bold;font-size:27.1623px;line-height:11.8834px;font-family:Quicksand;-inkscape-font-specification:'Quicksand Bold';display:inline;fill:#ffffff;stroke:#ffffff;stroke-width:1.32287;stroke-linecap:round;stroke-linejoin:round;stroke-dasharray:none;paint-order:stroke fill markers"
         aria-label="&lt;/&gt;"
         transform="translate(1.0807179e-5,1.7467816)"><path
           style="font-weight:500;font-family:Outfit;-inkscape-font-specification:'Outfit Medium';fill:url(#linearGradient61);stroke:url(#linearGradient59);stroke-width:1.32287;stroke-dasharray:none"
           d="M 53.114351,61.781985 41.135777,56.485336 v -2.172984 l 11.978574,-5.296648 v 3.015015 l -9.479643,3.911371 v -1.086492 l 9.479643,3.911371 z"
           id="path46" /><path
           style="font-weight:500;font-family:Outfit;-inkscape-font-specification:'Outfit Medium';fill:url(#linearGradient185);stroke:url(#linearGradient186);stroke-width:1.32287;stroke-dasharray:none"
           d="m 54.798438,65.584707 7.605444,-21.186594 h 2.797717 l -7.605444,21.186594 z"
           id="path47" /><path
           style="font-weight:500;font-family:Outfit;-inkscape-font-specification:'Outfit Medium';fill:url(#linearGradient52);stroke:url(#linearGradient55);stroke-width:1.32287;stroke-dasharray:none"
           d="m 66.885635,52.030719 v -3.015015 l 11.978575,5.296648 v 2.172984 l -11.978575,5.296649 v -3.015016 l 9.479643,-3.911371 v 1.086492 z"
           id="path48" /></g></g></g></svg>
